<svg width="131" height="233" viewBox="0 0 131 233" fill="none" xmlns="http://www.w3.org/2000/svg">
<path d="M115.519 51.1355C125.488 69.3143 131 92.419 131 116.462C131 158.097 114.346 195.628 89.3662 210.523C89.6007 211.227 89.718 212.048 89.718 212.869C89.718 217.091 86.3169 220.492 82.0949 220.492C77.8729 220.492 79.1629 220.023 77.9902 219.202V220.492C77.9902 227.294 72.4781 232.924 65.5586 232.924C58.6392 232.924 53.1271 227.412 53.1271 220.492C53.1271 213.572 53.1271 219.671 53.1271 219.202C51.9543 220.023 50.547 220.492 48.9051 220.492C44.6831 220.492 41.282 217.091 41.282 212.869C41.282 208.646 41.3993 211.344 41.6338 210.523C16.6535 195.511 0 157.98 0 116.462C0 74.9439 5.62936 68.9625 15.7153 50.6663C15.2462 50.3145 14.8944 49.9626 14.5425 49.6108C11.2587 45.8577 9.265 40.6973 8.79588 35.3023C8.44405 31.4319 8.91316 27.4443 10.3205 23.9258C10.5551 23.3394 11.2587 21.5802 12.9006 21.4629C14.6598 21.2283 15.7153 22.753 16.7708 24.1604C17.1227 24.6295 17.4745 25.2159 17.8263 25.4505C19.7028 27.2098 22.0483 28.7344 25.2149 30.1418C26.7395 30.8455 28.2641 31.4319 29.7887 31.9011C33.5416 28.148 37.5291 24.9814 41.6338 22.5184C41.3993 21.8147 41.282 20.9938 41.282 20.1728C41.282 15.9506 44.6831 12.5494 48.9051 12.5494C53.1271 12.5494 51.8371 13.0185 53.1271 13.7222V12.4321C53.1271 5.6297 58.6392 0.00012207 65.5586 0.00012207C72.4781 0.00012207 77.9902 5.51242 77.9902 12.4321C77.9902 19.3518 77.9902 13.2531 77.9902 13.7222C79.1629 12.9012 80.5703 12.5494 82.2122 12.5494C86.4342 12.5494 89.8353 15.9506 89.8353 20.1728C89.8353 24.395 89.718 21.6975 89.4834 22.5184C93.8227 25.0987 97.9275 28.3826 101.798 32.3702C103.322 31.9011 104.847 31.3146 106.372 30.611C109.421 29.2036 111.884 27.6789 113.643 26.0369C113.877 25.8024 114.346 25.2159 114.698 24.7468C115.637 23.3394 116.809 21.8147 118.569 22.0493C120.21 22.2839 120.914 24.0431 121.149 24.5122C122.556 28.0307 123.025 32.0183 122.673 35.8887C122.204 41.2837 120.21 46.4441 116.927 50.1972C116.692 50.549 116.223 51.0182 115.637 51.37V51.1355H115.519ZM121.031 116.345C121.031 68.1415 96.1683 28.8517 65.5586 28.8517C34.949 28.8517 10.086 68.1415 10.086 116.345C10.086 164.548 34.949 203.838 65.5586 203.838C96.1683 203.838 121.031 164.548 121.031 116.345Z" fill="black"/>
<path d="M105.785 88.6672C106.137 89.2536 106.019 89.9573 105.55 90.3091C104.964 90.661 104.26 90.5437 103.908 90.0746C102.501 88.0808 99.6862 87.1425 96.9888 87.6116C94.526 88.0808 92.5323 89.6054 91.0076 91.0128C92.6495 90.7783 94.1742 91.0128 95.5815 91.482C98.5135 92.6548 100.624 95.5869 101.328 99.5745C102.032 103.445 101.445 107.902 99.6862 112.124C99.3344 113.062 98.8653 113.883 98.5135 114.704C99.9208 113.531 101.094 112.241 102.266 110.834C102.735 110.365 103.439 110.247 103.908 110.599C104.377 111.068 104.495 111.772 104.143 112.241C101.445 115.642 97.9271 118.457 94.0569 120.568C91.3595 123.148 88.3102 124.556 85.3783 124.556C82.4463 124.556 83.3845 124.321 82.329 123.969C78.107 122.21 75.8787 117.05 76.3478 110.716C75.5269 111.42 74.5887 112.006 73.7677 112.476C73.2986 112.827 72.7122 112.945 72.2431 112.945C71.774 112.945 71.1876 112.71 70.953 112.358C70.2494 111.655 70.3666 110.716 70.4839 110.482C70.7185 108.371 71.3049 106.377 72.2431 104.5C72.4777 103.914 73.2986 103.679 73.885 104.031C74.4714 104.383 74.7059 104.97 74.3541 105.556C73.6504 107.081 73.064 108.723 72.9468 110.365C75.175 109.074 77.1688 107.198 79.1625 104.735C80.6871 102.741 82.0945 100.395 83.3845 98.2844L83.8537 97.5807C84.2055 96.877 84.5573 96.2906 84.9092 95.5869C85.3783 94.7659 85.9647 93.8276 86.5511 92.8894C87.1375 92.0684 87.7238 91.2474 88.4275 90.4264C90.0694 88.4326 93.0014 85.9697 96.637 85.266C100.273 84.5623 104.026 85.9697 105.902 88.6672H105.785ZM91.2422 101.686L95.4642 101.216L91.7113 99.1054L90.6558 98.5189C90.6558 96.877 90.7731 95.0005 91.4768 93.3585C90.4212 93.3585 89.2485 93.9449 88.0757 94.6486C87.4893 95.4696 87.0202 96.2906 86.6683 96.9943C86.3165 97.698 85.9647 98.2844 85.6128 98.8708L85.1437 99.5745C83.8537 101.803 82.4463 104.149 80.8044 106.26C80.218 106.963 79.7489 107.55 79.1625 108.136C77.7552 114.469 79.3971 120.216 83.15 121.741C85.8474 122.797 89.2485 121.741 92.1804 118.926C92.1804 118.809 92.415 118.574 92.6495 118.457C94.1742 116.932 95.5815 114.939 96.637 112.71C94.4087 112.124 92.0632 108.019 91.0076 102.741C91.0076 102.389 90.8904 101.92 90.7731 101.451H91.1249V101.686H91.2422Z" fill="black"/>
<path d="M91.2422 101.686L95.4642 101.216L91.7113 99.1054L90.6558 98.5189C90.6558 96.877 90.7731 95.0005 91.4768 93.3585C90.4212 93.3585 89.2485 93.9449 88.0757 94.6486C87.4893 95.4696 87.0202 96.2906 86.6683 96.9943C86.3165 97.698 85.9647 98.2844 85.6128 98.8708L85.1437 99.5745C83.8537 101.803 82.4463 104.149 80.8044 106.26C80.218 106.963 79.7489 107.55 79.1625 108.136C77.7552 114.469 79.3971 120.216 83.15 121.741C85.8474 122.797 89.2485 121.741 92.1804 118.926C92.1804 118.809 92.415 118.574 92.6495 118.457C94.1742 116.932 95.5815 114.939 96.637 112.71C94.4087 112.124 92.0632 108.019 91.0076 102.741C91.0076 102.389 90.8904 101.92 90.7731 101.451H91.1249V101.686H91.2422Z" fill="white"/>
<path d="M65.5613 28.8521C96.171 28.8521 121.034 68.1418 121.034 116.345C121.034 164.548 96.171 203.838 65.5613 203.838C34.9516 203.838 10.0886 164.548 10.0886 116.345C10.0886 68.1418 34.9516 28.8521 65.5613 28.8521ZM105.436 90.3083C105.905 89.9564 106.14 89.2527 105.671 88.6663C103.794 85.9688 100.041 84.5614 96.4055 85.2651C92.6526 85.9688 89.8379 88.549 88.196 90.4256C87.4924 91.2465 86.906 92.0675 86.3196 92.8885C85.6159 93.8268 85.1468 94.765 84.6777 95.586C84.3259 96.2897 83.974 96.8761 83.6222 97.5798L83.1531 98.2835C81.863 100.395 80.573 102.74 78.9311 104.734C76.9373 107.314 74.9436 109.074 72.7153 110.364C72.9499 108.722 73.419 107.08 74.1226 105.555C74.3572 104.969 74.1226 104.265 73.6535 104.03C73.1844 103.796 72.3635 104.03 72.0116 104.499C71.0734 106.376 70.487 108.37 70.2524 110.481C70.2524 110.715 70.1352 111.654 70.7216 112.357C71.0734 112.709 71.5425 112.944 72.0116 112.944C72.4807 112.944 73.0671 112.827 73.5362 112.475C74.4745 112.006 75.2954 111.419 76.1164 110.715C75.53 117.049 77.7583 122.209 82.0976 123.968C83.0358 124.32 84.0913 124.555 85.1468 124.555C88.0788 124.555 91.128 123.147 93.8254 120.567C97.6956 118.573 101.097 115.641 103.911 112.24C104.263 111.771 104.263 110.95 103.677 110.598C103.208 110.246 102.387 110.246 102.035 110.833C100.979 112.24 99.6893 113.53 98.282 114.703C98.7511 113.882 99.103 113.061 99.4548 112.123C101.214 107.901 101.8 103.444 101.097 99.5736C100.393 95.586 98.282 92.6539 95.35 91.4811C93.9427 90.8947 92.3008 90.7774 90.7762 91.012C92.1835 89.6046 94.2945 88.0799 96.7574 87.6108C99.4548 87.0244 102.387 88.0799 103.677 90.0737C104.029 90.5428 104.732 90.7774 105.319 90.3083H105.436ZM98.6338 152.937C98.8684 152.703 98.9857 152.351 98.6338 152.116C98.3993 151.882 98.0474 151.765 97.8129 151.999L56.2963 183.548C56.0618 183.783 55.9445 184.135 56.179 184.369C56.4136 184.604 56.4136 184.604 56.6482 184.604C56.8827 184.604 56.8827 184.604 57 184.486L98.6338 152.937ZM84.0913 177.098C84.3259 176.863 84.4431 176.511 84.2086 176.277C83.974 176.042 83.6222 175.925 83.3876 176.159L72.7153 184.017C72.4807 184.252 72.3635 184.604 72.598 184.838C72.8326 185.073 72.8326 185.073 73.0671 185.073C73.3017 185.073 73.3017 185.073 73.419 184.956L84.0913 177.098ZM81.1593 42.2223C81.3939 41.9877 81.5112 41.6359 81.2766 41.4013C81.0421 41.1668 80.6902 41.0495 80.4557 41.4013L38.8218 72.9504C38.5873 73.185 38.47 73.5368 38.7046 73.7714C38.8218 73.7714 38.9391 74.006 39.1737 74.006H39.5255L81.0421 42.4569V42.2223H81.1593ZM76.5855 74.4751C76.82 74.2405 76.9373 73.8887 76.7028 73.6541C76.4682 73.4195 76.1164 73.3023 75.8818 73.6541L65.2095 81.5121C64.9749 81.7466 64.8576 82.0985 65.0922 82.333C65.2095 82.333 65.3268 82.5676 65.5613 82.5676H65.9131L76.5855 74.7097V74.4751ZM75.8818 145.666C76.1164 145.431 76.2337 145.079 75.9991 144.845C75.7645 144.61 75.4127 144.493 75.1782 144.845L52.778 161.968C52.5434 162.203 52.4261 162.555 52.6607 162.789C52.8952 163.024 52.8952 163.024 53.1298 163.024C53.3644 163.024 53.3644 163.024 53.4816 162.906L75.8818 145.783V145.666ZM73.3017 137.808C73.5362 137.573 73.6535 137.221 73.419 136.987C73.1844 136.752 72.8326 136.635 72.598 136.87L61.9257 144.728C61.6911 144.962 61.5738 145.314 61.8084 145.549C62.043 145.783 62.043 145.783 62.2775 145.783C62.5121 145.783 62.5121 145.783 62.6293 145.666L73.3017 137.808ZM68.9624 42.8087C69.1969 42.5741 69.3142 42.2223 69.0797 41.9877C68.8451 41.7532 68.4933 41.6359 68.2587 41.9877L45.8585 59.2283C45.624 59.4629 45.5067 59.8147 45.8585 60.0493C45.8585 60.0493 46.0931 60.2839 46.3277 60.2839C46.5622 60.2839 46.5622 60.2839 46.6795 60.2839L69.0797 43.0433H68.9624V42.8087ZM61.5738 113.296C62.1602 112.592 62.043 111.771 62.043 111.419C61.8084 109.308 61.222 107.314 60.2838 105.438C60.0492 104.851 59.2283 104.617 58.7592 104.969C58.2901 105.32 57.9382 105.907 58.29 106.493C58.9937 108.018 59.5801 109.66 59.6974 111.302C57.4691 110.012 55.4754 108.135 53.4816 105.672C51.8397 103.561 50.5497 101.333 49.2596 99.2218L48.7905 98.4008C48.4387 97.8144 48.0868 97.1107 47.735 96.5243C47.2659 95.7033 46.6795 94.765 46.0931 93.8268C45.5067 93.0058 44.9203 92.1848 44.2166 91.3638C42.5747 89.37 39.7601 86.9071 36.0071 86.2034C32.3715 85.4997 28.6186 86.9071 26.7422 89.6046C26.3903 90.191 26.5076 90.8947 26.9767 91.2465C27.5631 91.5984 28.2668 91.4811 28.6186 91.012C30.0259 89.0182 32.8406 88.0799 35.538 88.549C38.0009 89.0182 39.9946 90.5428 41.5192 91.9502C39.8773 91.7157 38.3527 91.9502 36.9454 92.4194C34.0134 93.5922 31.9024 96.5243 31.1987 100.512C30.4951 104.382 31.0815 108.839 32.8406 113.061C33.1925 113.999 33.6616 114.82 34.0134 115.641C32.6061 114.469 31.4333 113.178 30.2605 111.771C29.9087 111.302 29.0877 111.185 28.6186 111.536C28.1495 111.888 28.0322 112.709 28.384 113.178C31.0815 116.58 34.5998 119.512 38.47 121.506C41.1674 124.086 44.2166 125.493 47.1486 125.493C50.0806 125.493 49.1423 125.259 50.1978 124.907C54.4199 123.147 56.6482 117.987 56.0618 111.654C56.8827 112.357 57.8209 112.944 58.6419 113.413C59.111 113.648 59.6974 113.882 60.1665 113.882C60.6356 113.882 61.222 113.648 61.5738 113.296Z" fill="#E4E3FD"/>
<path d="M98.7496 152.116C98.9842 152.35 98.8669 152.702 98.7496 152.937L57.1158 184.486C57.1158 184.486 56.8812 184.603 56.7639 184.603C56.6467 184.603 56.4121 184.603 56.2948 184.368C56.0603 184.134 56.1776 183.782 56.4121 183.547L97.9287 151.998C98.1632 151.764 98.5151 151.881 98.7496 152.116Z" fill="black"/>
<path d="M84.2094 176.277C84.4439 176.511 84.3266 176.863 84.0921 177.097L73.4198 184.955C73.4198 184.955 73.1852 185.073 73.0679 185.073C72.9506 185.073 72.7161 185.073 72.5988 184.838C72.3642 184.604 72.4815 184.252 72.7161 184.017L83.3884 176.159C83.623 175.925 83.9748 176.042 84.2094 176.277Z" fill="black"/>
<path d="M81.275 41.401C81.5096 41.6355 81.3923 41.9874 81.1577 42.2219L39.6412 73.771H39.2893C39.1721 73.771 38.9375 73.771 38.8202 73.5364C38.5857 73.3019 38.703 72.95 38.9375 72.7155L80.5714 41.1664C80.8059 40.9318 81.1577 41.1664 81.3923 41.1664H81.275V41.401Z" fill="black"/>
<path d="M76.6962 73.6554C76.9307 73.8899 76.8135 74.2418 76.5789 74.4763L65.9066 82.3343H65.5547C65.3202 82.3343 65.2029 82.3343 65.0856 82.0997C64.8511 81.8651 64.9683 81.5133 65.2029 81.2787L75.8752 73.4208C76.1098 73.1862 76.4616 73.4208 76.6962 73.4208V73.6554Z" fill="black"/>
<path d="M75.9953 144.845C76.2299 145.079 76.1126 145.431 75.878 145.666L53.4779 162.789C53.4779 162.789 53.2433 162.906 53.126 162.906C53.0087 162.906 52.7742 162.906 52.6569 162.672C52.4223 162.437 52.5396 162.085 52.7742 161.851L75.1744 144.727C75.4089 144.493 75.7608 144.61 75.9953 144.727V144.845Z" fill="black"/>
<path d="M73.4191 136.985C73.6536 137.22 73.5364 137.572 73.3018 137.806L62.6295 145.664C62.6295 145.664 62.3949 145.781 62.2776 145.781C62.1604 145.781 61.9258 145.781 61.8085 145.547C61.574 145.312 61.6912 144.96 61.9258 144.726L72.5981 136.868C72.8327 136.633 73.1845 136.751 73.4191 136.985Z" fill="black"/>
<path d="M69.0727 41.9872C69.3073 42.2218 69.19 42.5736 68.9554 42.8082L46.5552 60.0488C46.5552 60.0488 46.3207 60.0488 46.2034 60.0488C46.0861 60.0488 45.8516 60.0488 45.7343 59.8142C45.4997 59.5797 45.617 59.2278 45.7343 58.9932L68.1345 41.7527C68.369 41.5181 68.7209 41.7527 68.9554 41.7527H69.0727V41.9872Z" fill="black"/>
<path d="M62.0404 111.42C62.0404 111.654 62.1577 112.592 61.5713 113.296C61.2195 113.648 60.7503 113.883 60.1639 113.883C59.5776 113.883 59.2257 113.765 58.6393 113.413C57.7011 112.944 56.8802 112.358 56.0592 111.654C56.6456 117.987 54.4173 123.148 50.1953 124.907C49.2571 125.259 48.2015 125.494 47.146 125.494C44.2141 125.494 41.1648 124.086 38.4674 121.506C34.5972 119.512 31.1962 116.58 28.3815 113.179C27.9124 112.71 28.0296 111.889 28.616 111.537C29.0852 111.068 29.9061 111.185 30.2579 111.772C31.3135 113.179 32.6035 114.469 34.0109 115.642C33.5417 114.821 33.1899 114 32.8381 113.062C31.0789 108.839 30.4925 104.383 31.1962 100.512C31.8998 96.5247 34.0109 93.5927 36.9428 92.4198C38.3502 91.8334 39.992 91.7161 41.5167 91.9507C40.1093 90.5433 37.9983 89.0186 35.5355 88.5495C32.8381 88.0804 29.9061 89.0186 28.616 91.0124C28.2642 91.5989 27.5605 91.7161 26.9741 91.247C26.505 90.8952 26.2705 90.1915 26.7396 89.6051C28.616 86.9075 32.369 85.5002 36.0046 86.2038C39.7575 86.9075 42.5722 89.4878 44.2141 91.3643C44.9177 92.1853 45.5041 93.0063 46.0905 93.8272C46.7942 94.7655 47.2633 95.7038 47.7324 96.5247C48.0843 97.1112 48.4361 97.8149 48.7879 98.4013L49.257 99.2222C50.5471 101.333 51.8372 103.679 53.4791 105.673C55.4728 108.253 57.4665 110.012 59.6948 111.302C59.4603 109.66 58.9912 108.018 58.2875 106.494C58.0529 105.907 58.2875 105.204 58.7566 104.969C59.2257 104.735 60.0467 104.969 60.2812 105.438C61.2194 107.315 61.8058 109.309 62.0404 111.42ZM49.1398 122.679C52.8927 121.154 54.5346 115.407 53.1272 109.074C53.1272 109.074 52.8927 108.839 52.8927 108.722C53.5964 114.117 52.5408 118.457 50.3125 118.926C47.8497 119.395 45.035 114.938 43.8622 108.957C43.8622 108.605 43.745 108.136 43.6277 107.784H43.9795L48.2016 107.197L44.4486 105.086L43.3931 104.5C43.3931 101.099 44.0968 98.5186 45.5041 97.6976C45.1523 96.9939 44.6832 96.2902 44.2141 95.5865C41.8685 94.1791 39.5229 93.8272 37.6465 94.6482C35.4182 95.5865 33.8936 97.8148 33.3072 100.981C32.7208 104.383 33.3072 108.37 34.7145 112.241C35.8873 115.173 37.6465 117.753 39.5229 119.629C39.7575 119.629 39.8748 119.864 39.9921 120.099C42.924 122.796 46.2078 123.969 49.0225 122.796L49.1398 122.679Z" fill="black"/>
<path d="M49.1398 122.679C52.8927 121.154 54.5346 115.407 53.1272 109.074C53.1272 109.074 52.8927 108.839 52.8927 108.722C53.5964 114.117 52.5408 118.457 50.3125 118.926C47.8497 119.395 45.035 114.938 43.8622 108.957C43.8622 108.605 43.745 108.136 43.6277 107.784H43.9795L48.2016 107.197L44.4486 105.086L43.3931 104.5C43.3931 101.099 44.0968 98.5186 45.5041 97.6976C45.1523 96.9939 44.6832 96.2902 44.2141 95.5865C41.8685 94.1791 39.5229 93.8272 37.6465 94.6482C35.4182 95.5865 33.8936 97.8148 33.3072 100.981C32.7208 104.383 33.3072 108.37 34.7145 112.241C35.8873 115.173 37.6465 117.753 39.5229 119.629C39.7575 119.629 39.8748 119.864 39.9921 120.099C42.924 122.796 46.2078 123.969 49.0225 122.796L49.1398 122.679Z" fill="white"/>
</svg>
