<svg width="64" height="64" viewBox="0 0 64 64" fill="none" xmlns="http://www.w3.org/2000/svg">
<path d="M28.3497 29.6981C28.7245 31.4498 28.2694 33.0129 27.2521 33.4171C26.5024 33.7136 25.619 33.4171 24.8158 32.6626C24.789 32.6087 24.7355 32.5817 24.6819 32.5548C24.6819 32.5548 24.6819 32.5548 24.6552 32.5278C24.1465 32.0158 23.6914 31.3151 23.3701 30.5066C22.9418 29.4556 22.8079 28.3776 22.9685 27.4344C23.1292 26.572 23.5308 25.9522 24.1465 25.7096C24.6552 25.494 25.2977 25.5749 25.9135 25.9522C26.0473 26.1678 26.1544 26.3564 26.2615 26.5181C25.8867 26.7607 25.6725 27.4613 25.6725 28.3776L25.967 28.5393L26.9843 29.1322L25.8331 29.267H25.7528C25.7796 29.3747 25.7796 29.4825 25.8064 29.5903C26.1009 31.2343 26.904 32.447 27.5465 32.3122C28.1355 32.2044 28.43 30.9917 28.2426 29.5364C28.3229 29.6442 28.3497 29.6712 28.3497 29.6981Z" fill="white"/>
<path d="M40.1294 30.7493C39.8349 31.3691 39.4601 31.8812 39.0317 32.3124C39.0317 32.3124 39.0317 32.3124 39.005 32.3124C38.9514 32.3393 38.9246 32.3932 38.8979 32.4202C38.0947 33.1478 37.2112 33.4712 36.4616 33.1747C35.4443 32.7435 34.9892 31.2074 35.364 29.4557C35.4978 29.294 35.6585 29.1054 35.7923 28.9437C36.2475 28.3508 36.6223 27.731 36.9703 27.1111L37.0774 26.9225C37.1845 26.7608 37.2648 26.5722 37.3719 26.4105C37.479 26.2218 37.6128 26.0062 37.7735 25.7637C38.0947 25.575 38.3892 25.4672 38.6837 25.4133C38.4963 25.8445 38.4695 26.3566 38.4695 26.8147L38.764 26.9764L39.7813 27.5693L38.6302 27.704H38.5498C38.5766 27.8118 38.5766 27.9196 38.6034 28.0544C38.8979 29.4827 39.5404 30.6146 40.1294 30.7493Z" fill="white"/>
<path d="M42.057 30.1293C41.9232 30.0215 41.709 30.0484 41.6019 30.1832C41.3074 30.5605 40.9594 30.9108 40.5846 31.2342C40.6917 31.0186 40.8255 30.7761 40.9058 30.5335C41.3877 29.3747 41.5216 28.162 41.3342 27.111C41.12 26.006 40.5846 25.2245 39.7814 24.9011C39.4066 24.7394 38.9783 24.7125 38.5231 24.7933C38.9247 24.3891 39.4602 24.0118 40.1295 23.877C40.8791 23.7423 41.6555 24.0118 42.0035 24.5508C42.1106 24.6855 42.298 24.7394 42.4586 24.6316C42.5925 24.5238 42.646 24.3352 42.5389 24.2004C42.0303 23.4459 41.0129 23.0686 40.0224 23.2842C39.005 23.4728 38.2554 24.1735 37.8003 24.7125C37.6129 24.9281 37.4523 25.1706 37.2916 25.3862C37.1042 25.6557 36.9704 25.8982 36.8365 26.1408C36.7294 26.3294 36.6223 26.4911 36.542 26.6528L36.4349 26.8415C36.0869 27.4344 35.7389 28.0542 35.3105 28.5932C34.7751 29.2939 34.2396 29.7789 33.6239 30.1293C33.6774 29.6711 33.8113 29.24 34.0255 28.8357C34.1058 28.674 34.0522 28.4854 33.8916 28.4045C33.731 28.3237 33.5436 28.3776 33.4632 28.5393C33.1955 29.0513 33.0349 29.5903 32.9814 30.1562C32.9814 30.2371 32.9546 30.4796 33.1152 30.6683C33.2223 30.7761 33.3294 30.83 33.49 30.83C33.6239 30.83 33.7577 30.803 33.8916 30.6952C34.1325 30.5605 34.3735 30.3988 34.6144 30.2101C34.4538 31.9079 35.0696 33.3363 36.2208 33.8213C36.4885 33.9291 36.7562 33.983 37.0239 33.983C37.8003 33.983 38.6302 33.5788 39.3531 32.8781C40.3972 32.3122 41.3342 31.5576 42.057 30.6144C42.2177 30.4527 42.1909 30.2371 42.057 30.1293ZM31.6963 7.86914C39.9688 7.86914 46.7154 18.568 46.7154 31.6923C46.7154 44.8167 39.9688 55.5156 31.6963 55.5156C23.397 55.5156 16.6772 44.8167 16.6772 31.6923C16.6772 18.568 23.4238 7.86914 31.6963 7.86914ZM40.6381 41.6636C40.7184 41.6097 40.7184 41.5019 40.6649 41.448C40.6114 41.3672 40.5043 41.3672 40.4507 41.4211L29.2065 50.0179C29.1262 50.0718 29.1262 50.1796 29.1797 50.2335C29.2065 50.2604 29.2601 50.2874 29.3136 50.2874C29.3404 50.2874 29.3939 50.2874 29.4207 50.2604L40.6381 41.6636ZM36.7294 48.2392C36.8097 48.1853 36.8097 48.0775 36.7562 48.0236C36.7027 47.9428 36.5956 47.9428 36.542 47.9967L33.6774 50.1257C33.5971 50.1796 33.5971 50.2874 33.6507 50.3413C33.6774 50.3952 33.731 50.4221 33.7845 50.4221C33.8113 50.4221 33.8381 50.3952 33.8648 50.3952L36.7294 48.2392ZM35.9263 11.5342C36.0066 11.4804 36.0066 11.3726 35.953 11.3187C35.8995 11.2378 35.7924 11.2378 35.7389 11.2917L24.4947 19.8616C24.4143 19.9155 24.4143 20.0233 24.4679 20.0772C24.4947 20.1041 24.5482 20.1311 24.6017 20.1311C24.6285 20.1311 24.6821 20.1311 24.6821 20.1041L35.9263 11.5342ZM34.668 20.2928C34.7483 20.2389 34.7483 20.1311 34.6948 20.0772C34.6412 19.9963 34.5341 19.9963 34.4806 20.0502L31.616 22.1523C31.5357 22.2062 31.5357 22.314 31.5892 22.3679C31.616 22.4218 31.6695 22.4218 31.7231 22.4218C31.7498 22.4218 31.7766 22.4218 31.8034 22.3948L34.668 20.2928ZM34.5074 39.6963C34.5877 39.6424 34.5877 39.5346 34.5341 39.4807C34.4806 39.3999 34.3735 39.3999 34.32 39.4538L28.2427 44.116C28.1624 44.1699 28.1624 44.2777 28.2159 44.3316C28.2427 44.3585 28.2963 44.3855 28.3498 44.3855C28.3766 44.3855 28.4034 44.3855 28.4301 44.3585L34.5074 39.6963ZM33.7845 37.5404C33.8648 37.4865 33.8648 37.3787 33.8113 37.3248C33.7577 37.2439 33.6507 37.2439 33.5971 37.2978L30.7325 39.4268C30.6522 39.4807 30.6522 39.5885 30.7057 39.6424C30.7325 39.6963 30.7861 39.7232 30.8396 39.7232C30.8664 39.7232 30.9199 39.6963 30.9199 39.6963L33.7845 37.5404ZM32.6333 11.669C32.7136 11.6151 32.7136 11.5073 32.6601 11.4534C32.6065 11.3726 32.4995 11.3726 32.4459 11.4265L26.3687 16.1156C26.2884 16.1695 26.2884 16.2773 26.3419 16.3312C26.3687 16.3582 26.4222 16.3851 26.4758 16.3851C26.5025 16.3851 26.5561 16.3851 26.5829 16.3582L32.6333 11.669ZM30.5987 30.8569C30.7593 30.6683 30.7325 30.4257 30.7325 30.3449C30.679 29.7789 30.5183 29.213 30.2774 28.701C30.1971 28.5393 30.0097 28.4854 29.849 28.5662C29.6884 28.6471 29.6349 28.8357 29.7152 28.9974C29.9294 29.4017 30.0632 29.8598 30.1168 30.291C29.5278 29.9406 28.9656 29.4286 28.4301 28.7549C28.0018 28.1889 27.627 27.5691 27.3057 27.0032L27.1718 26.7876C27.0648 26.6259 26.9844 26.4372 26.8774 26.2755C26.7435 26.0599 26.6096 25.7904 26.4222 25.521C26.4222 25.521 26.4222 25.521 26.4222 25.494C26.2884 25.2784 26.101 25.0359 25.9136 24.8203C25.4584 24.2813 24.7088 23.6075 23.6915 23.392C22.7009 23.2033 21.6836 23.5806 21.1749 24.3082C21.0678 24.443 21.1214 24.6586 21.2552 24.7394C21.3891 24.8472 21.6033 24.7933 21.6836 24.6586C22.0584 24.1196 22.8348 23.8501 23.5576 23.9848C24.2269 24.1196 24.7624 24.5238 25.1639 24.9011C24.7356 24.8203 24.3072 24.8742 23.9057 25.0089C23.1025 25.3323 22.5671 26.1138 22.3529 27.2188C22.1655 28.2698 22.3261 29.4825 22.7812 30.6413C22.8883 30.8839 22.9954 31.1264 23.1025 31.342C22.7277 31.0186 22.3797 30.6683 22.0852 30.291C21.9781 30.1562 21.7639 30.1293 21.6301 30.2371C21.4962 30.3449 21.4694 30.5605 21.5765 30.6952C22.3261 31.6115 23.2631 32.393 24.2805 32.959C25.0033 33.6597 25.8332 34.0369 26.6364 34.0369C26.9041 34.0369 27.1986 33.983 27.4396 33.8752C28.5908 33.3902 29.1797 31.9888 29.0459 30.264C29.2868 30.4527 29.501 30.6144 29.7687 30.7491C29.9026 30.83 30.0364 30.8569 30.1703 30.8569C30.3845 31.0186 30.5183 30.9647 30.5987 30.8569Z" fill="#E4E3FD"/>
<path d="M45.2161 13.9328C47.92 18.8915 49.3925 25.1707 49.3925 31.7194C49.3925 43.065 44.8948 53.2788 38.1215 57.3482C38.1751 57.5368 38.2286 57.7524 38.2286 57.968C38.2286 59.0999 37.2916 60.0431 36.1672 60.0431C35.7656 60.0431 35.364 59.9353 35.0427 59.7197C35.0695 59.8275 35.0695 59.9623 35.0695 60.0701C35.0695 61.9296 33.5703 63.4387 31.723 63.4387C29.8758 63.4387 28.3765 61.9296 28.3765 60.0701C28.3765 59.9623 28.3765 59.8275 28.4033 59.7197C28.082 59.9353 27.6805 60.0431 27.2789 60.0431C26.1545 60.0431 25.2174 59.1268 25.2174 57.968C25.2174 57.7524 25.2442 57.5368 25.3245 57.3482C18.5245 53.2519 14 43.0381 14 31.7194C14 25.1168 15.4992 18.7837 18.2567 13.7981C18.1229 13.7172 18.0426 13.6094 17.9355 13.5016C17.0252 12.4775 16.5166 11.0762 16.3827 9.59396C16.3292 8.54294 16.463 7.46497 16.8378 6.49479C16.8914 6.33309 17.0788 5.87496 17.5339 5.82106C18.0158 5.76716 18.3103 6.1714 18.578 6.54869C18.6851 6.68344 18.7922 6.81818 18.8457 6.89903C19.3544 7.38412 19.9969 7.78836 20.8268 8.16565C21.2284 8.35429 21.6568 8.51599 22.0584 8.65074C23.0757 7.62666 24.1466 6.76428 25.271 6.09055C25.2174 5.87496 25.1639 5.68631 25.1639 5.47072C25.1639 4.33884 26.1009 3.39562 27.2253 3.39562C27.6269 3.39562 28.0285 3.50341 28.3498 3.71901C28.3498 3.61121 28.323 3.47646 28.323 3.36867C28.323 1.50916 29.8222 0 31.6695 0C33.5167 0 35.016 1.50916 35.016 3.36867C35.016 3.47646 35.016 3.61121 34.9892 3.71901C35.3105 3.50341 35.712 3.39562 36.1136 3.39562C37.2648 3.39562 38.1751 4.33884 38.1751 5.47072C38.1751 5.68631 38.1483 5.9019 38.068 6.09055C39.2192 6.79123 40.3436 7.68056 41.3877 8.75853C41.816 8.62379 42.2176 8.46209 42.646 8.27345C43.4759 7.89616 44.1184 7.49192 44.6271 7.00683C44.7074 6.92598 44.8145 6.79123 44.8948 6.65649C45.1625 6.2792 45.457 5.87496 45.9389 5.92885C46.394 5.98275 46.5814 6.44089 46.635 6.60259C47.0098 7.57276 47.1436 8.65074 47.0633 9.70176C46.9562 11.157 46.4208 12.5853 45.5106 13.6094C45.4838 13.6903 45.3767 13.825 45.2161 13.9328ZM46.7153 31.7194C46.7153 18.5681 39.9688 7.89616 31.6962 7.89616C23.3969 7.89616 16.6772 18.595 16.6772 31.7194C16.6772 44.8437 23.4237 55.5426 31.6962 55.5426C39.9955 55.5426 46.7153 44.8437 46.7153 31.7194Z" fill="black"/>
<path d="M36.542 47.9967C36.6223 47.9428 36.7026 47.9697 36.7562 48.0236C36.8097 48.1045 36.783 48.1853 36.7294 48.2392L33.8648 50.3682C33.8381 50.3952 33.8113 50.3952 33.7845 50.3952C33.731 50.3952 33.6774 50.3682 33.6506 50.3143C33.5971 50.2335 33.6239 50.1526 33.6774 50.0987L36.542 47.9967Z" fill="black"/>
<path d="M39.0317 32.3124C39.4333 31.9081 39.8081 31.3691 40.1294 30.7493C39.5404 30.5876 38.8979 29.4827 38.6302 28.0274C38.6034 27.9196 38.5766 27.8118 38.5766 27.6771H38.6569L39.8081 27.5423L38.7908 26.9495L38.4963 26.7878C38.4963 26.3296 38.5231 25.8176 38.7105 25.3864C38.416 25.4403 38.0947 25.5481 37.8002 25.7367C37.6396 25.9523 37.5057 26.1949 37.3987 26.3835C37.2916 26.5722 37.1845 26.7339 37.1042 26.8956L36.9971 27.0842C36.649 27.6771 36.2742 28.3239 35.8191 28.9168C35.6853 29.1054 35.5246 29.2671 35.3908 29.4288C35.016 31.1805 35.4711 32.7166 36.4884 33.1478C37.238 33.4442 38.1215 33.1209 38.9247 32.3932C38.9247 32.3932 38.9782 32.3393 39.0317 32.3124ZM42.5656 24.1737C42.6727 24.3084 42.646 24.524 42.4853 24.6049C42.3515 24.7127 42.1373 24.6857 42.0302 24.524C41.6554 23.985 40.879 23.7155 40.1562 23.8503C39.4869 23.985 38.9514 24.3893 38.5499 24.7666C38.9782 24.6857 39.4066 24.7396 39.8081 24.8744C40.6113 25.1977 41.1735 25.9793 41.3609 27.0842C41.5483 28.1352 41.3877 29.3479 40.9326 30.5068C40.8255 30.7493 40.7184 30.9919 40.6113 31.2074C40.9861 30.8841 41.3341 30.5337 41.6286 30.1564C41.7357 30.0217 41.9499 29.9947 42.0837 30.1025C42.2176 30.2103 42.2444 30.4259 42.1373 30.5607C41.3877 31.5039 40.4507 32.2585 39.4333 32.8244C38.7105 33.5251 37.8806 33.9293 37.1042 33.9293C36.8097 33.9293 36.542 33.8754 36.301 33.7676C35.1498 33.2825 34.5608 31.8812 34.6947 30.1564C34.4537 30.3451 34.2128 30.5068 33.9719 30.6415C33.838 30.7224 33.6774 30.7763 33.5703 30.7763C33.4364 30.7763 33.3026 30.7224 33.1955 30.6146C33.0348 30.4259 33.0616 30.1834 33.0616 30.1025C33.1152 29.5366 33.2758 28.9976 33.5435 28.4856C33.6238 28.3239 33.8112 28.27 33.9719 28.3508C34.1325 28.4317 34.186 28.6203 34.1057 28.782C33.8915 29.1862 33.7577 29.6444 33.7041 30.0756C34.2931 29.7252 34.8553 29.2132 35.3908 28.5395C35.8191 27.9735 36.1939 27.3806 36.5152 26.7878L36.6223 26.5991C36.7294 26.4105 36.8365 26.2488 36.9168 26.0871C37.0506 25.8715 37.1845 25.602 37.3719 25.3325C37.5325 25.1169 37.6932 24.8744 37.8806 24.6588C38.3357 24.1198 39.1121 23.446 40.1026 23.2304C41.0396 23.0418 42.057 23.4191 42.5656 24.1737Z" fill="black"/>
<path d="M34.6679 20.2929L31.7766 22.4219C31.7498 22.4489 31.723 22.4489 31.6962 22.4489C31.6427 22.4489 31.5892 22.4219 31.5624 22.395C31.5088 22.3141 31.5356 22.2333 31.5892 22.1794L34.4538 20.0504C34.5341 19.9965 34.6144 20.0234 34.6679 20.0773C34.775 20.1312 34.7482 20.239 34.6679 20.2929Z" fill="black"/>
<path d="M33.5971 37.2708C33.6774 37.2169 33.7577 37.2439 33.8112 37.2978C33.8648 37.3786 33.838 37.4595 33.7845 37.5134L30.9199 39.6424C30.8931 39.6693 30.8663 39.6693 30.8396 39.6693C30.786 39.6693 30.7325 39.6424 30.7057 39.5885C30.6522 39.5076 30.6789 39.4268 30.7325 39.3729L33.5971 37.2708Z" fill="black"/>
<path d="M40.4507 41.4212C40.531 41.3673 40.6113 41.3943 40.6648 41.4482C40.7184 41.529 40.6916 41.6099 40.6381 41.6638L29.3939 50.2606C29.3671 50.2876 29.3403 50.2876 29.2868 50.2876C29.2332 50.2876 29.1797 50.2606 29.1529 50.2337C29.0994 50.1528 29.0994 50.072 29.1797 50.0181L40.4507 41.4212Z" fill="black"/>
<path d="M34.3199 39.4268C34.4002 39.3729 34.4805 39.3999 34.5341 39.4538C34.5876 39.5346 34.5876 39.6155 34.5073 39.6694L28.4301 44.3586C28.4033 44.3855 28.3765 44.3855 28.3498 44.3855C28.2962 44.3855 28.2427 44.3586 28.2159 44.3316C28.1624 44.2508 28.1624 44.1699 28.2427 44.116L34.3199 39.4268Z" fill="black"/>
<path d="M32.4458 11.4266C32.5261 11.3727 32.6064 11.3996 32.66 11.4535C32.7135 11.5344 32.7135 11.6152 32.6332 11.6691L26.5828 16.3583C26.556 16.3853 26.5292 16.3853 26.4757 16.3853C26.4221 16.3853 26.3954 16.3583 26.3418 16.3314C26.2883 16.2505 26.315 16.1697 26.3686 16.1158L32.4458 11.4266Z" fill="black"/>
<path d="M24.4946 19.8616L35.7388 11.2647C35.7924 11.2108 35.8995 11.2378 35.953 11.2917C36.0066 11.3725 35.9798 11.4534 35.9262 11.5073L24.682 20.1041C24.6553 20.1311 24.6285 20.1311 24.6017 20.1311C24.5482 20.1311 24.4946 20.1041 24.4679 20.0772C24.4143 20.0233 24.4143 19.9155 24.4946 19.8616Z" fill="black"/>
<path d="M27.2789 33.4173C28.2963 33.013 28.7514 31.45 28.3766 29.6983C28.3498 29.6713 28.323 29.6444 28.2963 29.6174C28.4837 31.0727 28.1892 32.2854 27.6002 32.3932C26.9309 32.5279 26.1545 31.2883 25.86 29.6713C25.8332 29.5635 25.8332 29.4557 25.8065 29.3479H25.8868L27.038 29.2132L26.0207 28.6203L25.7262 28.4586C25.7262 27.5423 25.9403 26.8416 26.3151 26.5991C26.2081 26.4104 26.101 26.2218 25.9671 26.0331C25.3246 25.6559 24.7088 25.575 24.2002 25.7906C23.6112 26.0331 23.1828 26.653 23.0222 27.5154C22.8616 28.4316 22.9954 29.5366 23.4238 30.5876C23.745 31.3961 24.2002 32.0967 24.7088 32.6088C24.7088 32.6088 24.7356 32.6088 24.7356 32.6357C24.7891 32.6627 24.8427 32.7166 24.8695 32.7435C25.6191 33.3903 26.5293 33.7137 27.2789 33.4173ZM23.6915 23.473C24.7088 23.6616 25.4584 24.3623 25.9136 24.9013C26.101 25.1169 26.2616 25.3594 26.4222 25.575C26.4222 25.575 26.4222 25.575 26.4222 25.602C26.6096 25.8715 26.7435 26.114 26.8774 26.3565C26.9844 26.5182 27.0648 26.6799 27.1718 26.8686L27.3057 27.0842C27.6537 27.6771 28.0018 28.2699 28.4301 28.8359C28.9656 29.5096 29.501 30.0216 30.1168 30.372C30.0632 29.9138 29.9294 29.4827 29.7152 29.0784C29.6349 28.9167 29.6884 28.7281 29.849 28.6472C30.0097 28.5664 30.1971 28.6203 30.2774 28.782C30.5451 29.294 30.7057 29.833 30.7325 30.4259C30.7325 30.5067 30.7593 30.7493 30.5987 30.9379C30.4916 31.0457 30.3577 31.0996 30.2238 31.0996C30.09 31.0996 29.9561 31.0457 29.8223 30.9918C29.5813 30.8571 29.3404 30.6954 29.0994 30.5067C29.2601 32.2045 28.6443 33.6329 27.4931 34.1179C27.2254 34.2257 26.9577 34.2796 26.6899 34.2796C25.9136 34.2796 25.0836 33.8754 24.334 33.2017C23.2899 32.6357 22.3529 31.8542 21.6301 30.9379C21.523 30.8032 21.5497 30.5876 21.6836 30.4798C21.8175 30.372 22.0316 30.3989 22.1387 30.5337C22.4332 30.911 22.7812 31.2613 23.1561 31.5847C23.049 31.3691 22.9151 31.1266 22.8348 30.884C22.3797 29.7252 22.219 28.5125 22.4064 27.4615C22.5938 26.3565 23.1561 25.575 23.9592 25.2516C24.334 25.0899 24.7624 25.063 25.2175 25.1438C24.8159 24.7396 24.2805 24.3353 23.6112 24.2275C22.8616 24.0928 22.0852 24.3623 21.7371 24.9013C21.6301 25.036 21.4427 25.0899 21.3088 24.9821C21.1749 24.8743 21.1214 24.6857 21.2285 24.5509C21.6836 23.6347 22.7009 23.2843 23.6915 23.473Z" fill="black"/>
</svg>
