<?xml version="1.0" encoding="utf-8"?>
<!-- Generator: Adobe Illustrator 27.1.1, SVG Export Plug-In . SVG Version: 6.00 Build 0)  -->
<svg version="1.1" id="Layer_1" xmlns="http://www.w3.org/2000/svg" xmlns:xlink="http://www.w3.org/1999/xlink" x="0px" y="0px"
	 viewBox="0 0 1513 808" style="enable-background:new 0 0 1513 808;" xml:space="preserve">
<style type="text/css">
	.st0{fill:#FFFFFF;}
	.st1{fill:#E4E3FD;}
</style>
<g>
	<path class="st0" d="M255.6,387c4.1,19.1-0.9,36.1-12,40.5c-8.2,3.2-17.8,0-26.5-8.2c-0.3-0.6-0.9-0.9-1.5-1.2c0,0,0,0-0.3-0.3
		c-5.5-5.6-10.5-13.2-14-22c-4.7-11.5-6.1-23.2-4.4-33.5c1.8-9.4,6.1-16.1,12.8-18.8c5.5-2.3,12.5-1.5,19.3,2.6
		c1.5,2.3,2.6,4.4,3.8,6.2c-4.1,2.6-6.4,10.3-6.4,20.3l3.2,1.8l11.1,6.5l-12.5,1.5h-0.9c0.3,1.2,0.3,2.3,0.6,3.5
		c3.2,17.9,12,31.1,19,29.7c6.4-1.2,9.6-14.4,7.6-30.2C255.3,386.4,255.6,386.7,255.6,387z"/>
</g>
<g>
	<path class="st0" d="M384,398.4c-3.2,6.8-7.3,12.3-12,17c0,0,0,0-0.3,0c-0.6,0.3-0.9,0.9-1.2,1.2c-8.7,7.9-18.4,11.5-26.5,8.2
		c-11.1-4.7-16-21.4-12-40.5c1.5-1.8,3.2-3.8,4.7-5.6c5-6.5,9-13.2,12.8-20l1.2-2.1c1.2-1.8,2-3.8,3.2-5.6c1.2-2.1,2.6-4.4,4.4-7
		c3.5-2.1,6.7-3.2,9.9-3.8c-2,4.7-2.3,10.3-2.3,15.3l3.2,1.8l11.1,6.5l-12.5,1.5h-0.9c0.3,1.2,0.3,2.3,0.6,3.8
		C370.5,384.6,377.5,397,384,398.4z"/>
</g>
<g>
	<path class="st1" d="M405,391.7c-1.5-1.2-3.8-0.9-5,0.6c-3.2,4.1-7,7.9-11.1,11.5c1.2-2.3,2.6-5,3.5-7.6
		c5.3-12.6,6.7-25.8,4.7-37.3c-2.3-12-8.2-20.6-16.9-24.1c-4.1-1.8-8.8-2.1-13.7-1.2c4.4-4.4,10.2-8.5,17.5-10
		c8.2-1.5,16.6,1.5,20.4,7.3c1.2,1.5,3.2,2.1,5,0.9c1.5-1.2,2-3.2,0.9-4.7c-5.5-8.2-16.6-12.3-27.4-10c-11.1,2.1-19.3,9.7-24.2,15.6
		c-2,2.3-3.8,5-5.5,7.3c-2,2.9-3.5,5.6-5,8.2c-1.2,2.1-2.3,3.8-3.2,5.6l-1.2,2.1c-3.8,6.5-7.6,13.2-12.3,19.1
		c-5.8,7.6-11.7,12.9-18.4,16.7c0.6-5,2-9.7,4.4-14.1c0.9-1.8,0.3-3.8-1.5-4.7c-1.7-0.9-3.8-0.3-4.7,1.5c-2.9,5.6-4.7,11.5-5.3,17.6
		c0,0.9-0.3,3.5,1.5,5.6c1.2,1.2,2.3,1.8,4.1,1.8c1.5,0,2.9-0.3,4.4-1.5c2.6-1.5,5.3-3.2,7.9-5.3c-1.7,18.5,5,34.1,17.5,39.3
		c2.9,1.2,5.8,1.8,8.8,1.8c8.5,0,17.5-4.4,25.4-12c11.4-6.2,21.6-14.4,29.5-24.7C406.7,395.2,406.4,392.8,405,391.7z M292.1,149.1
		c90.1,0,163.6,116.6,163.6,259.6s-73.5,259.6-163.6,259.6c-90.4,0-163.6-116.6-163.6-259.6S201.9,149.1,292.1,149.1z M389.5,517.3
		c0.9-0.6,0.9-1.8,0.3-2.3c-0.6-0.9-1.8-0.9-2.3-0.3l-122.5,93.7c-0.9,0.6-0.9,1.8-0.3,2.3c0.3,0.3,0.9,0.6,1.5,0.6
		c0.3,0,0.9,0,1.2-0.3L389.5,517.3z M346.9,589c0.9-0.6,0.9-1.8,0.3-2.3c-0.6-0.9-1.8-0.9-2.3-0.3l-31.2,23.2
		c-0.9,0.6-0.9,1.8-0.3,2.3c0.3,0.6,0.9,0.9,1.5,0.9c0.3,0,0.6-0.3,0.9-0.3L346.9,589z M338.2,189.1c0.9-0.6,0.9-1.8,0.3-2.3
		c-0.6-0.9-1.8-0.9-2.3-0.3l-122.5,93.4c-0.9,0.6-0.9,1.8-0.3,2.3c0.3,0.3,0.9,0.6,1.5,0.6c0.3,0,0.9,0,0.9-0.3L338.2,189.1z
		 M324.4,284.5c0.9-0.6,0.9-1.8,0.3-2.3c-0.6-0.9-1.7-0.9-2.3-0.3l-31.2,22.9c-0.9,0.6-0.9,1.8-0.3,2.3c0.3,0.6,0.9,0.6,1.5,0.6
		c0.3,0,0.6,0,0.9-0.3L324.4,284.5z M322.7,495.9c0.9-0.6,0.9-1.8,0.3-2.3c-0.6-0.9-1.8-0.9-2.3-0.3l-66.2,50.8
		c-0.9,0.6-0.9,1.8-0.3,2.3c0.3,0.3,0.9,0.6,1.5,0.6c0.3,0,0.6,0,0.9-0.3L322.7,495.9z M314.8,472.4c0.9-0.6,0.9-1.8,0.3-2.3
		c-0.6-0.9-1.8-0.9-2.3-0.3L281.6,493c-0.9,0.6-0.9,1.8-0.3,2.3c0.3,0.6,0.9,0.9,1.5,0.9c0.3,0,0.9-0.3,0.9-0.3L314.8,472.4z
		 M302.3,190.5c0.9-0.6,0.9-1.8,0.3-2.3c-0.6-0.9-1.7-0.9-2.3-0.3L234,239c-0.9,0.6-0.9,1.8-0.3,2.3c0.3,0.3,0.9,0.6,1.5,0.6
		c0.3,0,0.9,0,1.2-0.3L302.3,190.5z M280.1,399.6c1.8-2.1,1.5-4.7,1.5-5.6c-0.6-6.2-2.3-12.3-5-17.9c-0.9-1.8-2.9-2.3-4.7-1.5
		c-1.8,0.9-2.3,2.9-1.5,4.7c2.3,4.4,3.8,9.4,4.4,14.1c-6.4-3.8-12.5-9.4-18.4-16.7c-4.7-6.2-8.8-12.9-12.3-19.1l-1.5-2.3
		c-1.2-1.8-2-3.8-3.2-5.6c-1.5-2.3-2.9-5.3-5-8.2c0,0,0,0,0-0.3c-1.5-2.3-3.5-5-5.5-7.3c-5-5.9-13.1-13.2-24.2-15.6
		c-10.8-2.1-21.9,2.1-27.4,10c-1.2,1.5-0.6,3.8,0.9,4.7c1.5,1.2,3.8,0.6,4.7-0.9c4.1-5.9,12.5-8.8,20.4-7.3
		c7.3,1.5,13.1,5.9,17.5,10c-4.7-0.9-9.3-0.3-13.7,1.2c-8.8,3.5-14.6,12-16.9,24.1c-2,11.5-0.3,24.7,4.7,37.3
		c1.2,2.6,2.3,5.3,3.5,7.6c-4.1-3.5-7.9-7.3-11.1-11.5c-1.2-1.5-3.5-1.8-5-0.6c-1.5,1.2-1.8,3.5-0.6,5c8.2,10,18.4,18.5,29.5,24.7
		c7.9,7.6,16.9,11.7,25.7,11.7c2.9,0,6.1-0.6,8.8-1.8c12.5-5.3,19-20.6,17.5-39.3c2.6,2.1,5,3.8,7.9,5.3c1.5,0.9,2.9,1.2,4.4,1.2
		C277.8,401.4,279.2,400.8,280.1,399.6z"/>
</g>
<g>
	<path d="M439.4,215.2c29.5,54,45.5,122.4,45.5,193.8c0,123.6-49,234.9-122.8,279.2c0.6,2.1,1.2,4.4,1.2,6.8
		c0,12.3-10.2,22.6-22.5,22.6c-4.4,0-8.8-1.2-12.3-3.5c0.3,1.2,0.3,2.6,0.3,3.8c0,20.3-16.3,36.7-36.5,36.7s-36.5-16.4-36.5-36.7
		c0-1.2,0-2.6,0.3-3.8c-3.5,2.3-7.9,3.5-12.3,3.5c-12.3,0-22.5-10-22.5-22.6c0-2.3,0.3-4.7,1.2-6.8C148.6,643.6,99.3,532.3,99.3,409
		c0-71.9,16.3-140.9,46.4-195.3c-1.5-0.9-2.3-2.1-3.5-3.2c-9.9-11.2-15.5-26.4-16.9-42.6c-0.6-11.5,0.9-23.2,5-33.8
		c0.6-1.8,2.6-6.8,7.6-7.3c5.3-0.6,8.5,3.8,11.4,7.9c1.2,1.5,2.3,2.9,2.9,3.8c5.5,5.3,12.5,9.7,21.6,13.8c4.4,2.1,9,3.8,13.4,5.3
		c11.1-11.2,22.8-20.6,35-27.9c-0.6-2.3-1.2-4.4-1.2-6.8c0-12.3,10.2-22.6,22.5-22.6c4.4,0,8.8,1.2,12.3,3.5c0-1.2-0.3-2.6-0.3-3.8
		c0-20.3,16.3-36.7,36.5-36.7c20.1,0,36.5,16.4,36.5,36.7c0,1.2,0,2.6-0.3,3.8c3.5-2.3,7.9-3.5,12.3-3.5c12.5,0,22.5,10.3,22.5,22.6
		c0,2.3-0.3,4.7-1.2,6.8c12.5,7.6,24.8,17.3,36.2,29.1c4.7-1.5,9-3.2,13.7-5.3c9-4.1,16-8.5,21.6-13.8c0.9-0.9,2-2.3,2.9-3.8
		c2.9-4.1,6.1-8.5,11.4-7.9c5,0.6,7,5.6,7.6,7.3c4.1,10.6,5.5,22.3,4.7,33.8c-1.2,15.9-7,31.4-16.9,42.6
		C442.3,212.6,441.1,214,439.4,215.2z M455.7,409c0-143.3-73.5-259.6-163.6-259.6c-90.4,0-163.6,116.6-163.6,259.6
		c0,143,73.5,259.6,163.6,259.6C382.5,668.6,455.7,552,455.7,409z"/>
	<path class="st0" d="M292.4,756.6c-21.2,0-38.5-17.4-38.5-38.7c0-0.1,0-0.2,0-0.3c-3,1.3-6.5,2-10,2c-13.5,0-24.5-11-24.5-24.6
		c0-2.2,0.2-4.2,0.7-5.9c-36.1-22.2-66.8-60.3-88.9-110.2C109,528.5,97.3,469.7,97.3,409c0-71.5,16.3-140.6,45.8-194.7
		c-0.6-0.5-1.1-1-1.5-1.5c-0.3-0.3-0.5-0.6-0.8-0.8l-0.1-0.1c-9.7-10.9-15.9-26.4-17.4-43.7c-0.6-12.5,1.1-24.4,5.1-34.7
		c0.8-2.3,3.2-7.9,9.2-8.6c6.5-0.7,10.4,4.7,13.2,8.7c1.1,1.4,2.2,2.8,2.9,3.7c5.3,5,11.9,9.2,20.9,13.3c3.5,1.7,7.6,3.3,12.1,4.8
		c10.7-10.7,21.9-19.6,33.2-26.5c-0.5-1.9-0.9-3.7-0.9-5.8c0-13.3,11.2-24.6,24.5-24.6c3.5,0,6.9,0.7,10,2c0-0.1,0-0.2,0-0.3
		c0-21.3,17.3-38.7,38.5-38.7c21.2,0,38.5,17.4,38.5,38.7c0,0.1,0,0.2,0,0.3c3-1.3,6.5-2,10-2c13.5,0,24.5,11,24.5,24.6
		c0,2.2-0.2,4.2-0.7,5.9c12.2,7.6,23.8,16.9,34.3,27.6c3.7-1.2,7.6-2.7,12.3-4.8c9-4.1,15.7-8.4,21-13.4c0.7-0.7,1.8-2,2.6-3.4
		l0.1-0.1c2.8-4,6.7-9.5,13.2-8.8c6,0.7,8.5,6.3,9.3,8.7c4,10.4,5.7,22.4,4.8,34.5c-1.2,16.6-7.5,32.4-17.2,43.5c-0.4,1-1.3,2-2.4,3
		c29,53.9,44.9,122.4,44.9,193.3c0,60.9-11.7,119.7-33.9,170.2c-22,49.9-52.6,87.9-88.6,110c0.5,1.9,0.8,3.8,0.8,5.8
		c0,13.3-11.2,24.6-24.5,24.6c-3.5,0-6.9-0.7-10-2c0,0.1,0,0.2,0,0.3C330.8,739.2,313.6,756.6,292.4,756.6z M259.4,709.5l-1.2,5
		c-0.2,0.9-0.2,2.3-0.2,3.3c0,19.1,15.5,34.7,34.5,34.7s34.5-15.6,34.5-34.7c0-1.1,0-2.4-0.2-3.3l-1.2-5l4.3,2.9
		c3.1,2.1,7,3.2,11.1,3.2c11.1,0,20.5-9.4,20.5-20.6c0-2.1-0.5-4.2-1.1-6.2l-0.4-1.5l1.3-0.8c72.9-43.8,121.8-155.3,121.8-277.5
		c0-70.8-16.1-139.3-45.3-192.8l-0.9-1.6l1.5-1c1.6-1.1,2.3-2.2,2.4-2.5l0.1-0.4l0.3-0.3c9.3-10.4,15.2-25.5,16.4-41.4
		c0.9-11.6-0.7-22.9-4.5-32.9c-0.6-1.7-2.3-5.6-6-6.1c-3.8-0.4-6.3,2.6-9.5,7c-0.9,1.5-2.1,3-3.2,4.1c-5.7,5.4-12.7,9.9-22.2,14.2
		c-5.4,2.4-9.7,4-13.9,5.4l-1.2,0.4l-0.9-0.9c-10.9-11.3-23-21-35.8-28.8l-1.5-0.9l0.7-1.6c0.7-1.6,1-3.5,1-6
		c0-11.4-9.2-20.6-20.5-20.6c-4.1,0-8.1,1.1-11.1,3.2l-4.3,2.9l1.2-5c0.2-0.9,0.2-2.3,0.2-3.3c0-19.1-15.5-34.7-34.5-34.7
		c-19,0-34.5,15.6-34.5,34.7c0,0.5,0.1,1.1,0.1,1.7c0.1,0.7,0.2,1.4,0.2,2.1v3.8l-3.1-2.1c-3.1-2.1-7-3.2-11.1-3.2
		c-11.1,0-20.5,9.4-20.5,20.6c0,1.9,0.4,3.6,0.9,5.6l0.5,2.1l-1.3,0.8c-11.8,7.1-23.5,16.4-34.6,27.6l-0.9,0.9l-1.2-0.4
		c-5.1-1.7-9.7-3.5-13.6-5.4c-9.5-4.3-16.5-8.8-22.1-14.2l-0.2-0.2l-0.1-0.2c-0.5-0.8-1.7-2.2-2.8-3.6l-0.1-0.1
		c-3.1-4.4-5.7-7.5-9.5-7.1c-3.7,0.4-5.4,4.3-5.9,6c-3.8,9.8-5.5,21.2-4.9,33c1.5,16.4,7.3,31.1,16.4,41.3c0.3,0.3,0.6,0.6,0.9,0.9
		c0.7,0.8,1.4,1.5,2.2,2l1.6,1l-0.9,1.7c-29.7,53.8-46.1,122.8-46.1,194.3c0,121.9,49.2,233.4,122.4,277.5l1.5,0.9l-0.7,1.6
		c-0.7,1.6-1,3.5-1,6c0,11.4,9.2,20.6,20.5,20.6c4.1,0,8.1-1.1,11.1-3.2L259.4,709.5z M292.1,670.6c-91.3,0-165.6-117.3-165.6-261.6
		s74.3-261.6,165.6-261.6c91.3,0,165.6,117.3,165.6,261.6S383.4,670.6,292.1,670.6z M292.1,151.4c-89.1,0-161.6,115.5-161.6,257.6
		c0,68.8,16.9,133.5,47.7,182.3c30.6,48.5,71,75.2,113.9,75.2c89.1,0,161.6-115.5,161.6-257.6C453.7,267,381.2,151.4,292.1,151.4z"
		/>
</g>
<g>
	<path d="M344.9,586.3c0.9-0.6,1.7-0.3,2.3,0.3c0.6,0.9,0.3,1.8-0.3,2.3l-31.2,23.2c-0.3,0.3-0.6,0.3-0.9,0.3
		c-0.6,0-1.2-0.3-1.5-0.9c-0.6-0.9-0.3-1.8,0.3-2.3L344.9,586.3z"/>
</g>
<g>
	<path d="M372,415.5c4.4-4.4,8.5-10.3,12-17c-6.4-1.8-13.4-13.8-16.3-29.7c-0.3-1.2-0.6-2.3-0.6-3.8h0.9l12.5-1.5l-11.1-6.5
		l-3.2-1.8c0-5,0.3-10.6,2.3-15.3c-3.2,0.6-6.7,1.8-9.9,3.8c-1.8,2.3-3.2,5-4.4,7c-1.2,2.1-2.3,3.8-3.2,5.6l-1.2,2.1
		c-3.8,6.5-7.9,13.5-12.8,20c-1.5,2.1-3.2,3.8-4.7,5.6c-4.1,19.1,0.9,35.8,12,40.5c8.2,3.2,17.8-0.3,26.5-8.2
		C370.8,416.3,371.4,415.8,372,415.5z M410.5,326.8c1.2,1.5,0.9,3.8-0.9,4.7c-1.5,1.2-3.8,0.9-5-0.9c-4.1-5.9-12.5-8.8-20.4-7.3
		c-7.3,1.5-13.1,5.9-17.5,10c4.7-0.9,9.3-0.3,13.7,1.2c8.8,3.5,14.9,12,16.9,24.1c2,11.5,0.3,24.7-4.7,37.3
		c-1.2,2.6-2.3,5.3-3.5,7.6c4.1-3.5,7.9-7.3,11.1-11.5c1.2-1.5,3.5-1.8,5-0.6c1.5,1.2,1.7,3.5,0.6,5c-8.2,10.3-18.4,18.5-29.5,24.7
		c-7.9,7.6-16.9,12-25.4,12c-3.2,0-6.1-0.6-8.8-1.8c-12.5-5.3-19-20.6-17.5-39.3c-2.6,2.1-5.3,3.8-7.9,5.3c-1.5,0.9-3.2,1.5-4.4,1.5
		c-1.5,0-2.9-0.6-4.1-1.8c-1.7-2.1-1.5-4.7-1.5-5.6c0.6-6.2,2.3-12,5.3-17.6c0.9-1.8,2.9-2.3,4.7-1.5c1.8,0.9,2.3,2.9,1.5,4.7
		c-2.3,4.4-3.8,9.4-4.4,14.1c6.4-3.8,12.5-9.4,18.4-16.7c4.7-6.2,8.8-12.6,12.3-19.1l1.2-2.1c1.2-2.1,2.3-3.8,3.2-5.6
		c1.5-2.3,2.9-5.3,5-8.2c1.8-2.3,3.5-5,5.5-7.3c5-5.9,13.4-13.2,24.2-15.6C393.9,314.5,405,318.6,410.5,326.8z"/>
</g>
<g>
	<path d="M324.4,284.5l-31.5,23.2c-0.3,0.3-0.6,0.3-0.9,0.3c-0.6,0-1.2-0.3-1.5-0.6c-0.6-0.9-0.3-1.8,0.3-2.3l31.2-23.2
		c0.9-0.6,1.7-0.3,2.3,0.3C325.6,282.7,325.3,283.9,324.4,284.5z"/>
</g>
<g>
	<path d="M312.8,469.5c0.9-0.6,1.8-0.3,2.3,0.3c0.6,0.9,0.3,1.8-0.3,2.3l-31.2,23.2c-0.3,0.3-0.6,0.3-0.9,0.3
		c-0.6,0-1.2-0.3-1.5-0.9c-0.6-0.9-0.3-1.8,0.3-2.3L312.8,469.5z"/>
</g>
<g>
	<path d="M387.5,514.7c0.9-0.6,1.8-0.3,2.3,0.3c0.6,0.9,0.3,1.8-0.3,2.3L267,611c-0.3,0.3-0.6,0.3-1.2,0.3c-0.6,0-1.2-0.3-1.5-0.6
		c-0.6-0.9-0.6-1.8,0.3-2.3L387.5,514.7z"/>
</g>
<g>
	<path d="M320.7,493c0.9-0.6,1.8-0.3,2.3,0.3c0.6,0.9,0.6,1.8-0.3,2.3l-66.2,51.1c-0.3,0.3-0.6,0.3-0.9,0.3c-0.6,0-1.2-0.3-1.5-0.6
		c-0.6-0.9-0.6-1.8,0.3-2.3L320.7,493z"/>
</g>
<g>
	<path d="M300.2,187.9c0.9-0.6,1.7-0.3,2.3,0.3c0.6,0.9,0.6,1.8-0.3,2.3l-65.9,51.1c-0.3,0.3-0.6,0.3-1.2,0.3
		c-0.6,0-0.9-0.3-1.5-0.6c-0.6-0.9-0.3-1.8,0.3-2.3L300.2,187.9z"/>
</g>
<g>
	<path d="M213.6,279.8l122.5-93.7c0.6-0.6,1.8-0.3,2.3,0.3c0.6,0.9,0.3,1.8-0.3,2.3l-122.5,93.7c-0.3,0.3-0.6,0.3-0.9,0.3
		c-0.6,0-1.2-0.3-1.5-0.6C212.7,281.6,212.7,280.4,213.6,279.8z"/>
</g>
<g>
	<path d="M243.9,427.5c11.1-4.4,16-21.4,12-40.5c-0.3-0.3-0.6-0.6-0.9-0.9c2,15.9-1.2,29.1-7.6,30.2c-7.3,1.5-15.8-12-19-29.7
		c-0.3-1.2-0.3-2.3-0.6-3.5h0.9l12.5-1.5l-11.1-6.5l-3.2-1.8c0-10,2.3-17.6,6.4-20.3c-1.2-2.1-2.3-4.1-3.8-6.2
		c-7-4.1-13.7-5-19.3-2.6c-6.4,2.6-11.1,9.4-12.8,18.8c-1.8,10-0.3,22,4.4,33.5c3.5,8.8,8.5,16.4,14,22c0,0,0.3,0,0.3,0.3
		c0.6,0.3,1.2,0.9,1.5,1.2C225.9,427.2,235.8,430.7,243.9,427.5z M204.9,319.1c11.1,2.1,19.3,9.7,24.2,15.6c2,2.3,3.8,5,5.5,7.3
		c0,0,0,0,0,0.3c2,2.9,3.5,5.6,5,8.2c1.2,1.8,2,3.5,3.2,5.6l1.5,2.3c3.8,6.5,7.6,12.9,12.3,19.1c5.8,7.3,11.7,12.9,18.4,16.7
		c-0.6-5-2-9.7-4.4-14.1c-0.9-1.8-0.3-3.8,1.5-4.7c1.8-0.9,3.8-0.3,4.7,1.5c2.9,5.6,4.7,11.5,5,17.9c0,0.9,0.3,3.5-1.5,5.6
		c-1.2,1.2-2.6,1.8-4.1,1.8c-1.5,0-2.9-0.6-4.4-1.2c-2.6-1.5-5.3-3.2-7.9-5.3c1.7,18.5-5,34.1-17.5,39.3c-2.9,1.2-5.8,1.8-8.8,1.8
		c-8.5,0-17.5-4.4-25.7-11.7c-11.4-6.2-21.6-14.7-29.5-24.7c-1.2-1.5-0.9-3.8,0.6-5c1.5-1.2,3.8-0.9,5,0.6c3.2,4.1,7,7.9,11.1,11.5
		c-1.2-2.3-2.6-5-3.5-7.6c-5-12.6-6.7-25.8-4.7-37.3c2-12,8.2-20.6,16.9-24.1c4.1-1.8,8.8-2.1,13.7-1.2c-4.4-4.4-10.2-8.8-17.5-10
		c-8.2-1.5-16.6,1.5-20.4,7.3c-1.2,1.5-3.2,2.1-4.7,0.9c-1.5-1.2-2-3.2-0.9-4.7C183,320.9,194.1,317.1,204.9,319.1z"/>
</g>
<g>
	<path d="M783.2,391.4v94.9h-40.4v-85.3c0-3.4-1.1-4.5-5-4.5c-8.2,0-14.1,2-22,6.3v83.5h-40.4v-85.3c0-3.4-1.1-4.5-5-4.5
		c-8.2,0-14.1,2-22,6.3v83.5H608V363.7h40.4V378c6.1-7,14.3-15.7,33.8-15.7c18.8,0,28.8,5.7,32.2,17.5c5.7-8.2,16.1-17.5,35.2-17.5
		C773.9,362.3,783.2,371.6,783.2,391.4z"/>
	<path class="st0" d="M785.2,488.2h-44.4v-87.3c0-2.1,0-2.5-3-2.5c-6.9,0-12.3,1.5-20,5.5v84.3h-44.4v-87.3c0-2.1,0-2.5-3-2.5
		c-6.9,0-12.3,1.5-20,5.5v84.3H606V361.7h44.4v11.1c6.6-6.8,15.4-12.5,31.8-12.5c17.7,0,28.2,4.9,32.9,15.3
		c8.3-10.1,20.2-15.3,34.5-15.3c24.6,0,35.6,9.6,35.6,31.1V488.2z M744.8,484.2h36.4v-92.9c0-19.2-9.2-27.1-31.6-27.1
		c-14.6,0-25.9,5.6-33.5,16.6l-2.4,3.4l-1.2-4c-3.2-11.1-12.5-16-30.3-16c-17.8,0-25.4,7.1-32.3,15l-3.5,4v-17.6H610v118.5h36.4
		v-82.7l1-0.6c7.5-4.1,14-6.6,23-6.6c4.9,0,7,2,7,6.5v83.3h36.4v-82.7l1-0.6c7.5-4.1,14-6.6,23-6.6c4.9,0,7,2,7,6.5V484.2z"/>
</g>
<g>
	<path d="M804.5,320.6h42.2v31.1h-42.2V320.6z M805.4,363.7h40.4v122.5h-40.4V363.7z"/>
	<path class="st0" d="M847.8,488.2h-44.4V361.7h44.4V488.2z M807.4,484.2h36.4V365.7h-36.4V484.2z M848.7,353.6h-46.2v-35.1h46.2
		V353.6z M806.5,349.6h38.2v-27.1h-38.2V349.6z"/>
</g>
<g>
	<path d="M869,363.7h40.4v15.7c5.2-7,14.1-15.7,28.8-15.7h12.7v35.2h-15c-10.4,0-19.3,1.6-26.5,6.3v81H869V363.7L869,363.7z"/>
	<path class="st0" d="M911.4,488.2H867V361.7h44.4v12.1c7.5-8,16.5-12.1,26.8-12.1h14.7v39.2h-17c-10.6,0-18.4,1.7-24.5,5.5V488.2z
		 M871,484.2h36.4v-80.1l0.9-0.6c7-4.6,15.7-6.7,27.6-6.7h13v-31.2h-10.7c-10.9,0-19.8,4.9-27.2,14.9l-3.6,4.9v-19.7H871V484.2z"/>
</g>
<g>
	<path d="M967.2,363.7h40.4v15.7c5.2-7,14.1-15.7,28.8-15.7h12.7v35.2h-15c-10.4,0-19.3,1.6-26.5,6.3v81h-40.4V363.7z"/>
	<path class="st0" d="M1009.6,488.2h-44.4V361.7h44.4v12.1c7.5-8.1,16.5-12.1,26.8-12.1h14.7v39.2h-17c-10.6,0-18.4,1.7-24.5,5.5
		V488.2z M969.2,484.2h36.4v-80.1l0.9-0.6c7-4.6,15.7-6.7,27.6-6.7h13v-31.2h-10.7c-10.9,0-19.8,4.9-27.2,14.9l-3.6,4.9v-19.7h-36.4
		V484.2z"/>
</g>
<g>
	<path d="M1059.8,457.2v-64.5c0-19.7,9.3-29.1,29.1-29.1h49.9c19.7,0,29.1,9.3,29.1,29.1v64.5c0,19.7-9.3,29.1-29.1,29.1h-49.9
		C1069.1,486.2,1059.8,476.9,1059.8,457.2z M1123.8,454.5c3.4,0,4.5-1.1,4.5-4.5V400c0-3.4-1.1-4.5-4.5-4.5h-20
		c-3.4,0-4.5,1.1-4.5,4.5v49.9c0,3.4,1.1,4.5,4.5,4.5H1123.8z"/>
	<path class="st0" d="M1138.8,488.2h-49.9c-20.9,0-31.1-10.2-31.1-31.1v-64.5c0-20.9,10.2-31.1,31.1-31.1h49.9
		c20.9,0,31.1,10.2,31.1,31.1v64.5C1169.9,478.1,1159.7,488.2,1138.8,488.2z M1088.9,365.7c-18.7,0-27.1,8.3-27.1,27.1v64.5
		c0,18.7,8.3,27,27.1,27.1h49.9c18.7,0,27.1-8.3,27.1-27.1v-64.5c0-18.7-8.3-27.1-27.1-27.1H1088.9z M1123.8,456.5h-20
		c-4.5,0-6.5-2-6.5-6.5V400c0-4.5,2-6.5,6.5-6.5h20c4.5,0,6.5,2,6.5,6.5v49.9C1130.4,454.4,1128.3,456.5,1123.8,456.5z
		 M1103.9,397.5c-2.3,0-2.5,0.2-2.5,2.5v49.9c0,2.3,0.2,2.5,2.5,2.5h20c2.3,0,2.5-0.2,2.5-2.5V400c0-2.3-0.2-2.5-2.5-2.5H1103.9z"/>
</g>
<g>
	<path d="M1189,363.7h40.4v15.7c5.2-7,14.1-15.7,28.8-15.7h12.7v35.2h-15c-10.4,0-19.3,1.6-26.5,6.3v81H1189V363.7L1189,363.7z"/>
	<path class="st0" d="M1231.4,488.2H1187V361.7h44.4v12.1c7.5-8,16.5-12.1,26.8-12.1h14.7v39.2h-17c-10.7,0-18.4,1.7-24.5,5.5V488.2
		z M1191,484.2h36.4v-80.1l0.9-0.6c7-4.6,15.7-6.7,27.6-6.7h13v-31.2h-10.7c-10.9,0-19.8,4.9-27.2,14.9l-3.6,4.9v-19.7H1191V484.2z"
		/>
</g>
<g>
	<path class="st1" d="M1386.3,478c0.1,1.7,0.7,5.5-0.5,6.9c-1.5,1.7-5.4,1.3-7.4,1.2c-7.7-0.2-15.3-0.1-23,0
		c-0.3-5.2-0.7-10.4-1-15.6c0-0.4-0.1-0.7-0.2-1.1c-0.3-1.2-1-2-1.8-2.5c-0.1-0.1-0.1-0.1-0.2-0.1c-0.1,0-0.1-0.1-0.1-0.1
		c-1.3-0.8-3-1-4.5-0.1c-0.6,0.3-1,0.7-1.4,1.2c-10.4,10.1-23.2,19.4-38.1,20.4c-6.4,0.4-14.3-0.3-18.4-6
		c-3.8-5.2-3.9-12.3-4.1-18.4c-0.6-16.4-1.4-32.8-1.6-49.2c-0.1-14.1,2.7-30.4,18.5-34.5c8.3-2.1,16.9-0.3,25,2.1
		c6.9,2.1,14.8,4.7,19.4,10.7c1.5,2.4,5,2.8,6.9,1c1.5-1.1,2.2-2.8,1.1-4.7c-0.4-9.1-0.8-18.1-1.2-27.2c-0.2-4.7-0.4-9.4-0.6-14.1
		c-0.1-2.2-0.2-4.5-0.3-6.7c-0.1-1.5-0.9-5.1-0.1-6.3c0.5-0.8,9.2-0.2,11-0.2c4.9-0.1,9.8-0.2,14.7-0.2c1.1,0,3.5-0.3,4.4,0.7
		c1,1,0.6,3.8,0.6,5.1c0.1,5,0.1,10,0.1,15c-0.1,19.5-1.2,38.9-0.5,58.4c0.7,18.8,2,37.5,2.8,56.2
		C1386.1,472.7,1386.2,475.4,1386.3,478z M1353.8,433c0.5-7.2,0.7-14.5,0.6-21.8c0-0.6-0.1-1.1-0.3-1.5c0-0.7-0.2-1.4-0.7-2
		c-2.9-4.4-7.3-6.2-12.4-6.8c-4.9-0.6-10.4-0.8-15.1,1.1c-11,4.5-10.3,19-10.8,28.9c-0.5,9.8-3,24.8,8,30.1c5.3,2.5,11,1.9,16.6,0.7
		c5.2-1.2,10.1-3,11.7-8.7c0.9-3.1,1.1-6.5,1.4-9.6C1353.2,439.9,1353.5,436.4,1353.8,433z"/>
</g>
<g>
	<path d="M1354.4,411.2c0.2,7.3,0,14.5-0.6,21.8c-0.3,3.5-0.6,6.9-1,10.3c-0.4,3.1-0.5,6.6-1.4,9.6c-1.6,5.6-6.5,7.5-11.7,8.7
		c-5.6,1.2-11.3,1.9-16.6-0.7c-11-5.2-8.5-20.2-8-30.1c0.5-9.9-0.2-24.4,10.8-28.9c4.7-1.9,10.2-1.8,15.1-1.1
		c5,0.6,9.5,2.5,12.4,6.8c0.5,0.7,0.7,1.4,0.7,2C1354.2,410.2,1354.3,410.7,1354.4,411.2z M1344.4,440.2c1-9.4,1.4-18.9,1.2-28.3
		c-1.9-2.5-6.1-2.5-8.9-2.6c-3.6-0.1-8.2-0.3-10.3,3.2c-1.8,3.1-1.8,7.3-2,10.7c-0.4,4.7-0.7,9.5-0.8,14.2
		c-0.1,3.8-0.7,8.3,0.5,12.1c1.1,3.5,4.4,4.5,7.8,4.4c2.2-0.1,4.3-0.6,6.4-1c1.2-0.3,3.3-0.4,4.2-1.4c1-1,1-3.4,1.1-4.7
		C1343.9,444.6,1344.1,442.4,1344.4,440.2z"/>
</g>
<g>
	<path d="M1352.5,467c0.8,0.6,1.5,1.4,1.8,2.5c0.1,0.3,0.2,0.7,0.2,1.1c0.2,5.2,0.6,10.4,1,15.6c7.7-0.1,15.3-0.2,23,0
		c2,0.1,5.9,0.5,7.4-1.2c1.2-1.4,0.6-5.2,0.5-6.9c-0.1-2.7-0.2-5.4-0.3-8c-0.8-18.8-2.2-37.5-2.8-56.2c-0.7-19.5,0.4-38.9,0.5-58.4
		c0-5,0-10-0.1-15c0-1.3,0.3-4-0.6-5.1c-0.9-1-3.3-0.7-4.4-0.7c-4.9,0-9.8,0.1-14.7,0.2c-1.7,0-10.4-0.6-11,0.2
		c-0.8,1.2,0.1,4.9,0.1,6.3c0.1,2.2,0.2,4.5,0.3,6.7c0.2,4.7,0.4,9.4,0.6,14.1c0.4,9.1,0.8,18.1,1.2,27.2c1,1.9,0.3,3.7-1.1,4.7
		c-1.9,1.7-5.5,1.4-6.9-1c-4.6-6-12.4-8.6-19.4-10.7c-8-2.4-16.7-4.3-25-2.1c-15.8,4-18.7,20.4-18.5,34.5c0.2,16.4,1,32.8,1.6,49.2
		c0.2,6.1,0.3,13.3,4.1,18.4c4.1,5.7,12,6.4,18.4,6c15-1,27.7-10.2,38.1-20.4c0.4-0.5,0.8-0.9,1.4-1.2c1.5-1,3.2-0.7,4.5,0.1
		c0.1,0,0.1,0.1,0.1,0.1C1352.4,466.9,1352.5,466.9,1352.5,467z M1394.6,467.4c0.2,5.1,0.8,10.4,0.5,15.5
		c-0.6,9.3-7.6,12.3-15.9,12.1c-9.3-0.2-18.6-0.1-27.9,0c-2.5,0-4.3-2-4.4-4.4c-0.2-3.6-0.4-7.2-0.7-10.8
		c-13.2,11.1-29.3,19.5-46.9,16.9c-7.9-1.2-15-5.2-18.6-12.5c-3.5-7.1-3.6-15.2-3.9-23c-0.4-10.3-0.7-20.6-1-30.8
		c-0.3-9.4-1.1-18.9,0.2-28.2c1.1-8.1,4-16.2,9.7-22.1c5.8-6.1,14-8.9,22.3-9.4c9.1-0.5,18.3,1.9,26.8,4.9c3.9,1.4,7.7,3,11.1,5.2
		c-0.4-9.1-0.8-18.2-1.2-27.2c-0.3-5.9-1-12-0.7-17.8c0.3-5.1,3.2-8.8,8.5-9.3c5.5-0.6,11.2-0.2,16.7-0.3c4.7-0.1,10-0.8,14.6,0.3
		c10.6,2.5,8.7,15.4,8.7,23.7c0.1,22.6-1.3,45.3-0.3,67.9c0.5,10.8,1.3,21.5,1.8,32.2C1394.2,455.8,1394.4,461.6,1394.6,467.4z"/>
</g>
</svg>
