<svg class="w-[120px] lg:w-[180px]" viewBox="0 0 191 102" fill="none" xmlns="http://www.w3.org/2000/svg">
    <g clip-path="url(#clip0_134_1028)">
        <path
            d="M23.1093 47.7787C23.7107 50.5892 22.9804 53.097 21.3482 53.7456C20.1455 54.2212 18.728 53.7456 17.4394 52.5349C17.3964 52.4485 17.3105 52.4052 17.2246 52.362C17.2246 52.362 17.2246 52.362 17.1817 52.3187C16.3655 51.4972 15.6353 50.373 15.1199 49.0758C14.4326 47.3895 14.2178 45.66 14.4755 44.1466C14.7333 42.763 15.3776 41.7685 16.3655 41.3794C17.1817 41.0334 18.2126 41.1632 19.2005 41.7685C19.4153 42.1144 19.5871 42.4171 19.7589 42.6765C19.1575 43.0657 18.8139 44.1899 18.8139 45.66L19.2864 45.9194L20.9187 46.8707L19.0716 47.0869H18.9428C18.9857 47.2598 18.9857 47.4328 19.0287 47.6057C19.5012 50.2433 20.7898 52.189 21.8207 51.9728C22.7657 51.7999 23.2382 49.8541 22.9375 47.5192C23.0664 47.6922 23.1093 47.7354 23.1093 47.7787Z"
            fill="white" />
        <path
            d="M42.009 49.4651C41.5365 50.4596 40.9352 51.2811 40.2479 51.9729C40.2479 51.9729 40.2479 51.9729 40.205 51.9729C40.1191 52.0161 40.0761 52.1026 40.0332 52.1459C38.7445 53.3133 37.327 53.8322 36.1243 53.3565C34.4921 52.6647 33.7619 50.2001 34.3632 47.3896C34.578 47.1302 34.8357 46.8275 35.0505 46.5681C35.7807 45.6168 36.3821 44.6223 36.9405 43.6278L37.1123 43.3252C37.2841 43.0657 37.413 42.7631 37.5848 42.5036C37.7566 42.201 37.9714 41.8551 38.2291 41.4659C38.7445 41.1632 39.217 40.9903 39.6895 40.9038C39.3888 41.5956 39.3459 42.4172 39.3459 43.1522L39.8184 43.4117L41.4506 44.3629L39.6036 44.5791H39.4748C39.5177 44.752 39.5177 44.925 39.5607 45.1412C40.0332 47.4328 41.0641 49.2489 42.009 49.4651Z"
            fill="white" />
        <path
            d="M45.1018 48.4705C44.887 48.2976 44.5434 48.3408 44.3716 48.557C43.8991 49.1623 43.3407 49.7244 42.7393 50.2433C42.9111 49.8974 43.1259 49.5082 43.2547 49.1191C44.0279 47.2598 44.2427 45.3141 43.942 43.6278C43.5984 41.855 42.7393 40.6011 41.4507 40.0822C40.8493 39.8228 40.1621 39.7795 39.4318 39.9093C40.0762 39.2607 40.9352 38.6553 42.0091 38.4391C43.2118 38.2229 44.4575 38.6553 45.0159 39.5201C45.1877 39.7363 45.4884 39.8228 45.7461 39.6498C45.9609 39.4769 46.0468 39.1742 45.8749 38.958C45.0588 37.7473 43.4266 37.142 41.8373 37.4879C40.205 37.7906 39.0023 38.9148 38.2721 39.7795C37.9714 40.1254 37.7137 40.5146 37.456 40.8605C37.1553 41.2929 36.9405 41.682 36.7257 42.0712C36.5539 42.3739 36.3821 42.6333 36.2532 42.8927L36.0814 43.1954C35.523 44.1466 34.9646 45.1411 34.2774 46.0059C33.4183 47.1301 32.5592 47.9084 31.5713 48.4705C31.6572 47.7354 31.8719 47.0436 32.2156 46.3951C32.3444 46.1356 32.2585 45.8329 32.0008 45.7032C31.7431 45.5735 31.4424 45.66 31.3135 45.9194C30.884 46.741 30.6263 47.6057 30.5404 48.5137C30.5404 48.6435 30.4974 49.0326 30.7551 49.3353C30.9269 49.5082 31.0988 49.5947 31.3565 49.5947C31.5713 49.5947 31.786 49.5515 32.0008 49.3785C32.3874 49.1623 32.774 48.9029 33.1606 48.6002C32.9028 51.3243 33.8908 53.6159 35.7378 54.3942C36.1673 54.5672 36.5969 54.6536 37.0264 54.6536C38.2721 54.6536 39.6037 54.0051 40.7634 52.8808C42.4386 51.9728 43.942 50.7622 45.1018 49.2488C45.3595 48.9894 45.3165 48.6435 45.1018 48.4705ZM28.4786 12.7554C41.7514 12.7554 52.5758 29.9211 52.5758 50.9783C52.5758 72.0356 41.7514 89.2013 28.4786 89.2013C15.1628 89.2013 4.38135 72.0356 4.38135 50.9783C4.38135 29.9211 15.2058 12.7554 28.4786 12.7554ZM42.8252 66.9767C42.9541 66.8902 42.9541 66.7172 42.8682 66.6307C42.7823 66.501 42.6104 66.501 42.5245 66.5875L24.4838 80.3806C24.355 80.4671 24.355 80.6401 24.4409 80.7265C24.4838 80.7698 24.5697 80.813 24.6557 80.813C24.6986 80.813 24.7845 80.813 24.8275 80.7698L42.8252 66.9767ZM36.5539 77.5269C36.6828 77.4404 36.6828 77.2675 36.5969 77.181C36.511 77.0513 36.3392 77.0513 36.2532 77.1377L31.6572 80.5536C31.5283 80.6401 31.5283 80.813 31.6142 80.8995C31.6572 80.986 31.7431 81.0292 31.829 81.0292C31.8719 81.0292 31.9149 80.986 31.9578 80.986L36.5539 77.5269ZM35.2653 18.6358C35.3942 18.5494 35.3942 18.3764 35.3083 18.2899C35.2223 18.1602 35.0505 18.1602 34.9646 18.2467L16.9239 31.9966C16.7951 32.0831 16.7951 32.256 16.881 32.3425C16.9239 32.3857 17.0098 32.429 17.0957 32.429C17.1387 32.429 17.2246 32.429 17.2246 32.3857L35.2653 18.6358ZM33.2465 32.6884C33.3753 32.6019 33.3753 32.429 33.2894 32.3425C33.2035 32.2128 33.0317 32.2128 32.9458 32.2992L28.3497 35.6719C28.2208 35.7583 28.2208 35.9313 28.3067 36.0178C28.3497 36.1042 28.4356 36.1042 28.5215 36.1042C28.5645 36.1042 28.6074 36.1042 28.6504 36.061L33.2465 32.6884ZM32.9887 63.8202C33.1176 63.7338 33.1176 63.5608 33.0317 63.4743C32.9458 63.3446 32.774 63.3446 32.6881 63.4311L22.9375 70.9114C22.8086 70.9978 22.8086 71.1708 22.8945 71.2573C22.9375 71.3005 23.0234 71.3438 23.1093 71.3438C23.1523 71.3438 23.1952 71.3438 23.2382 71.3005L32.9887 63.8202ZM31.829 60.3611C31.9578 60.2747 31.9578 60.1017 31.8719 60.0152C31.786 59.8855 31.6142 59.8855 31.5283 59.972L26.9322 63.3878C26.8034 63.4743 26.8034 63.6473 26.8893 63.7337C26.9322 63.8202 27.0181 63.8635 27.104 63.8635C27.147 63.8635 27.2329 63.8202 27.2329 63.8202L31.829 60.3611ZM29.982 18.852C30.1108 18.7655 30.1108 18.5926 30.0249 18.5061C29.939 18.3764 29.7672 18.3764 29.6813 18.4629L19.9307 25.9864C19.8018 26.0729 19.8018 26.2458 19.8878 26.3323C19.9307 26.3756 20.0166 26.4188 20.1025 26.4188C20.1455 26.4188 20.2314 26.4188 20.2743 26.3755L29.982 18.852ZM26.7174 49.638C26.9752 49.3353 26.9322 48.9461 26.9322 48.8164C26.8463 47.9084 26.5886 47.0004 26.202 46.1789C26.0731 45.9194 25.7725 45.8329 25.5147 45.9627C25.257 46.0924 25.1711 46.3951 25.3 46.6545C25.6436 47.3031 25.8584 48.0381 25.9443 48.7299C24.9993 48.1678 24.0972 47.3463 23.2382 46.2653C22.5509 45.3573 21.9495 44.3628 21.4341 43.4548L21.2193 43.1089C21.0475 42.8495 20.9186 42.5468 20.7468 42.2874C20.5321 41.9415 20.3173 41.5091 20.0166 41.0767C20.0166 41.0767 20.0166 41.0767 20.0166 41.0335C19.8018 40.6875 19.5012 40.2984 19.2005 39.9525C18.4703 39.0877 17.2676 38.0067 15.6353 37.6608C14.046 37.3582 12.4138 37.9635 11.5976 39.131C11.4258 39.3471 11.5117 39.6931 11.7265 39.8228C11.9413 39.9957 12.2849 39.9093 12.4138 39.6931C13.0151 38.8283 14.2608 38.3959 15.4205 38.6121C16.4944 38.8283 17.3535 39.4769 17.9978 40.0822C17.3105 39.9525 16.6232 40.039 15.9789 40.2552C14.6903 40.774 13.8312 42.0279 13.4876 43.8007C13.1869 45.487 13.4446 47.4328 14.1749 49.292C14.3467 49.6812 14.5185 50.0703 14.6903 50.4162C14.089 49.8974 13.5306 49.3353 13.0581 48.7299C12.8862 48.5137 12.5426 48.4705 12.3278 48.6435C12.1131 48.8164 12.0701 49.1623 12.2419 49.3785C13.4446 50.8486 14.948 52.1026 16.5803 53.0106C17.7401 54.1348 19.0716 54.7401 20.3602 54.7401C20.7898 54.7401 21.2623 54.6536 21.6489 54.4807C23.4959 53.7024 24.4409 51.454 24.2261 48.6867C24.6127 48.9894 24.9563 49.2488 25.3859 49.465C25.6006 49.5947 25.8154 49.638 26.0302 49.638C26.3738 49.8974 26.5886 49.8109 26.7174 49.638Z"
            fill="#E4E3FD" />
        <path
            d="M50.1703 22.484C54.5087 30.4399 56.8712 40.5145 56.8712 51.0215C56.8712 69.225 49.6549 85.6125 38.7875 92.1415C38.8734 92.4442 38.9593 92.7901 38.9593 93.136C38.9593 94.952 37.4559 96.4654 35.6519 96.4654C35.0076 96.4654 34.3633 96.2924 33.8478 95.9465C33.8908 96.1195 33.8908 96.3357 33.8908 96.5086C33.8908 99.4921 31.4853 101.913 28.5215 101.913C25.5577 101.913 23.1523 99.4921 23.1523 96.5086C23.1523 96.3357 23.1523 96.1195 23.1952 95.9465C22.6798 96.2924 22.0354 96.4654 21.3911 96.4654C19.5871 96.4654 18.0837 94.9953 18.0837 93.136C18.0837 92.7901 18.1266 92.4442 18.2555 92.1415C7.34517 85.5692 0.0859375 69.1818 0.0859375 51.0215C0.0859375 40.4281 2.49136 30.267 6.91563 22.2678C6.70086 22.1381 6.572 21.9652 6.40018 21.7922C4.93974 20.1491 4.12362 17.9007 3.90885 15.5226C3.82294 13.8363 4.03771 12.1067 4.63906 10.5502C4.72497 10.2907 5.02565 9.55567 5.75587 9.46919C6.52904 9.38271 7.00154 10.0313 7.43108 10.6366C7.60289 10.8528 7.77471 11.069 7.86062 11.1987C8.67674 11.977 9.70764 12.6256 11.0392 13.231C11.6835 13.5336 12.3708 13.7931 13.0151 14.0093C14.6474 12.3662 16.3655 10.9825 18.1696 9.90158C18.0837 9.55567 17.9978 9.253 17.9978 8.90709C17.9978 7.09106 19.5012 5.57771 21.3052 5.57771C21.9495 5.57771 22.5938 5.75067 23.1093 6.09657C23.1093 5.92362 23.0663 5.70743 23.0663 5.53447C23.0663 2.551 25.4718 0.129639 28.4356 0.129639C31.3994 0.129639 33.8049 2.551 33.8049 5.53447C33.8049 5.70743 33.8049 5.92362 33.7619 6.09657C34.2773 5.75067 34.9217 5.57771 35.566 5.57771C37.413 5.57771 38.8734 7.09106 38.8734 8.90709C38.8734 9.253 38.8305 9.59891 38.7016 9.90158C40.5486 11.0258 42.3527 12.4527 44.0279 14.1822C44.7152 13.966 45.3595 13.7066 46.0467 13.4039C47.3783 12.7986 48.4092 12.15 49.2253 11.3717C49.3542 11.242 49.526 11.0258 49.6549 10.8096C50.0844 10.2042 50.5569 9.55567 51.3301 9.64215C52.0603 9.72862 52.361 10.4637 52.4469 10.7231C53.0483 12.2797 53.263 14.0092 53.1342 15.6956C52.9623 18.0304 52.1033 20.3221 50.6428 21.9652C50.5999 22.0949 50.4281 22.3111 50.1703 22.484ZM52.5758 51.0215C52.5758 29.9211 41.7514 12.7986 28.4786 12.7986C15.1628 12.7986 4.38134 29.9643 4.38134 51.0215C4.38134 72.0788 15.2058 89.2445 28.4786 89.2445C41.7943 89.2445 52.5758 72.0788 52.5758 51.0215Z"
            fill="black" />
        <path
            d="M36.2532 77.1377C36.3821 77.0512 36.511 77.0945 36.5969 77.181C36.6828 77.3107 36.6398 77.4404 36.5539 77.5269L31.9578 80.9427C31.9149 80.986 31.8719 80.986 31.829 80.986C31.7431 80.986 31.6572 80.9427 31.6142 80.8562C31.5283 80.7265 31.5713 80.5968 31.6572 80.5103L36.2532 77.1377Z"
            fill="black" />
        <path
            d="M40.2479 51.9728C40.8922 51.3242 41.4936 50.4594 42.0091 49.4649C41.0641 49.2055 40.0332 47.4327 39.6036 45.0978C39.5607 44.9249 39.5177 44.7519 39.5177 44.5357H39.6466L41.4936 44.3195L39.8614 43.3683L39.3889 43.1089C39.3889 42.3738 39.4318 41.5523 39.7325 40.8604C39.26 40.9469 38.7445 41.1199 38.2721 41.4225C38.0143 41.7685 37.7996 42.1576 37.6277 42.4603C37.4559 42.7629 37.2841 43.0224 37.1552 43.2818L36.9834 43.5845C36.425 44.5357 35.8237 45.5735 35.0935 46.5247C34.8787 46.8274 34.621 47.0868 34.4062 47.3462C33.8048 50.1568 34.535 52.6214 36.1673 53.3132C37.37 53.7888 38.7875 53.2699 40.0761 52.1025C40.0761 52.1025 40.162 52.016 40.2479 51.9728ZM45.9179 38.9147C46.0897 39.1309 46.0467 39.4768 45.789 39.6065C45.5742 39.7795 45.2306 39.7362 45.0588 39.4768C44.4574 38.612 43.2118 38.1796 42.052 38.3958C40.9782 38.612 40.1191 39.2606 39.4748 39.866C40.162 39.7362 40.8493 39.8227 41.4936 40.0389C42.7822 40.5578 43.6843 41.8117 43.9849 43.5845C44.2856 45.2708 44.0279 47.2165 43.2977 49.0758C43.1259 49.4649 42.954 49.8541 42.7822 50.2C43.3836 49.6811 43.942 49.119 44.4145 48.5137C44.5863 48.2975 44.9299 48.2543 45.1447 48.4272C45.3595 48.6002 45.4024 48.9461 45.2306 49.1623C44.0279 50.6756 42.5245 51.8863 40.8922 52.7943C39.7325 53.9185 38.4009 54.5671 37.1552 54.5671C36.6828 54.5671 36.2532 54.4806 35.8666 54.3077C34.0196 53.5294 33.0746 51.281 33.2894 48.5137C32.9028 48.8164 32.5162 49.0758 32.1296 49.292C31.9149 49.4217 31.6571 49.5082 31.4853 49.5082C31.2705 49.5082 31.0558 49.4217 30.884 49.2487C30.6262 48.9461 30.6692 48.5569 30.6692 48.4272C30.7551 47.5192 31.0128 46.6544 31.4424 45.8329C31.5712 45.5735 31.8719 45.487 32.1296 45.6167C32.3874 45.7464 32.4733 46.0491 32.3444 46.3085C32.0008 46.9571 31.786 47.6922 31.7001 48.384C32.6451 47.8219 33.5471 47.0003 34.4062 45.9194C35.0935 45.0114 35.6948 44.0601 36.2103 43.1089L36.3821 42.8062C36.5539 42.5035 36.7257 42.2441 36.8546 41.9846C37.0693 41.6387 37.2841 41.2064 37.5848 40.774C37.8425 40.4281 38.1002 40.0389 38.4009 39.693C39.1311 38.8282 40.3768 37.7473 41.9661 37.4013C43.4695 37.0987 45.1017 37.704 45.9179 38.9147Z"
            fill="black" />
        <path
            d="M33.2463 32.6882L28.6073 36.1041C28.5643 36.1473 28.5213 36.1473 28.4784 36.1473C28.3925 36.1473 28.3066 36.1041 28.2636 36.0609C28.1777 35.9311 28.2207 35.8014 28.3066 35.7149L32.9027 32.2991C33.0315 32.2126 33.1604 32.2559 33.2463 32.3423C33.4181 32.4288 33.3752 32.6018 33.2463 32.6882Z"
            fill="black" />
        <path
            d="M31.5281 59.9287C31.657 59.8423 31.7859 59.8855 31.8718 59.972C31.9577 60.1017 31.9147 60.2314 31.8288 60.3179L27.2327 63.7337C27.1898 63.777 27.1468 63.777 27.1039 63.777C27.018 63.777 26.9321 63.7337 26.8891 63.6473C26.8032 63.5175 26.8462 63.3878 26.9321 63.3013L31.5281 59.9287Z"
            fill="black" />
        <path
            d="M42.5244 66.5874C42.6532 66.5009 42.7821 66.5442 42.868 66.6307C42.9539 66.7604 42.9109 66.8901 42.825 66.9766L24.7843 80.7697C24.7414 80.8129 24.6984 80.8129 24.6125 80.8129C24.5266 80.8129 24.4407 80.7697 24.3978 80.7265C24.3119 80.5967 24.3119 80.467 24.4407 80.3806L42.5244 66.5874Z"
            fill="black" />
        <path
            d="M32.6879 63.3877C32.8167 63.3012 32.9456 63.3445 33.0315 63.4309C33.1174 63.5607 33.1174 63.6904 32.9885 63.7769L23.238 71.3004C23.195 71.3436 23.1521 71.3436 23.1091 71.3436C23.0232 71.3436 22.9373 71.3004 22.8943 71.2572C22.8084 71.1274 22.8084 70.9977 22.9373 70.9112L32.6879 63.3877Z"
            fill="black" />
        <path
            d="M29.6812 18.4629C29.81 18.3764 29.9389 18.4197 30.0248 18.5061C30.1107 18.6359 30.1107 18.7656 29.9818 18.8521L20.2742 26.3756C20.2313 26.4188 20.1883 26.4188 20.1024 26.4188C20.0165 26.4188 19.9736 26.3756 19.8876 26.3323C19.8017 26.2026 19.8447 26.0729 19.9306 25.9864L29.6812 18.4629Z"
            fill="black" />
        <path
            d="M16.9241 31.9965L34.9648 18.2034C35.0507 18.1169 35.2225 18.1601 35.3084 18.2466C35.3943 18.3763 35.3514 18.5061 35.2655 18.5925L17.2248 32.3857C17.1818 32.4289 17.1389 32.4289 17.0959 32.4289C17.01 32.4289 16.9241 32.3857 16.8812 32.3424C16.7953 32.256 16.7953 32.083 16.9241 31.9965Z"
            fill="black" />
        <path
            d="M21.3913 53.7455C23.0236 53.0969 23.7538 50.589 23.1524 47.7785C23.1095 47.7353 23.0665 47.6921 23.0236 47.6488C23.3242 49.9837 22.8517 51.9294 21.9067 52.1024C20.8329 52.3186 19.5872 50.3296 19.1147 47.7353C19.0718 47.5623 19.0718 47.3894 19.0288 47.2164H19.1577L21.0047 47.0002L19.3725 46.049L18.9 45.7896C18.9 44.3194 19.2436 43.1952 19.845 42.8061C19.6731 42.5034 19.5013 42.2007 19.2866 41.8981C18.2557 41.2927 17.2677 41.163 16.4516 41.5089C15.5066 41.8981 14.8193 42.8926 14.5616 44.2762C14.3039 45.7463 14.5187 47.5191 15.2059 49.2054C15.7214 50.5026 16.4516 51.6268 17.2677 52.4483C17.2677 52.4483 17.3107 52.4483 17.3107 52.4915C17.3966 52.5348 17.4825 52.6213 17.5254 52.6645C18.7281 53.7022 20.1886 54.2211 21.3913 53.7455ZM15.6355 37.7904C17.2677 38.0931 18.4704 39.2173 19.2006 40.082C19.5013 40.428 19.759 40.8171 20.0168 41.163C20.0168 41.163 20.0168 41.163 20.0168 41.2063C20.3174 41.6386 20.5322 42.0278 20.747 42.4169C20.9188 42.6764 21.0477 42.9358 21.2195 43.2385L21.4343 43.5844C21.9927 44.5356 22.5511 45.4869 23.2383 46.3949C24.0974 47.4759 24.9565 48.2974 25.9444 48.8595C25.8585 48.1244 25.6437 47.4326 25.3001 46.784C25.1713 46.5246 25.2572 46.2219 25.5149 46.0922C25.7726 45.9625 26.0733 46.049 26.2021 46.3084C26.6317 47.13 26.8894 47.9947 26.9324 48.946C26.9324 49.0757 26.9753 49.4648 26.7176 49.7675C26.5458 49.9405 26.331 50.0269 26.1162 50.0269C25.9015 50.0269 25.6867 49.9405 25.4719 49.854C25.0853 49.6378 24.6988 49.3784 24.3122 49.0757C24.5699 51.7997 23.582 54.0914 21.7349 54.8697C21.3054 55.0426 20.8758 55.1291 20.4463 55.1291C19.2006 55.1291 17.8691 54.4805 16.6664 53.3996C14.9911 52.4915 13.4878 51.2376 12.328 49.7675C12.1562 49.5513 12.1991 49.2054 12.4139 49.0325C12.6287 48.8595 12.9723 48.9027 13.1441 49.1189C13.6166 49.7243 14.175 50.2864 14.7764 50.8052C14.6046 50.4593 14.3898 50.0702 14.2609 49.681C13.5307 47.8218 13.273 45.876 13.5737 44.1897C13.8743 42.4169 14.7764 41.163 16.065 40.6442C16.6664 40.3847 17.3536 40.3415 18.0838 40.4712C17.4395 39.8226 16.5804 39.174 15.5066 39.0011C14.3039 38.7849 13.0582 39.2173 12.4998 40.082C12.328 40.2982 12.0273 40.3847 11.8125 40.2118C11.5978 40.0388 11.5119 39.7361 11.6837 39.5199C12.4139 38.0498 14.0462 37.4877 15.6355 37.7904Z"
            fill="black" />
    </g>
    <path
        d="M100.8 48.4269V62.3975H94.8513V49.8293C94.8513 49.3279 94.6854 49.162 94.1162 49.162C92.9137 49.162 92.0429 49.4636 90.8743 50.0969V62.3937H84.9257V49.8293C84.9257 49.3279 84.7598 49.162 84.1906 49.162C82.988 49.162 82.1172 49.4636 80.9486 50.0969V62.3937H75V44.3481H80.9486V46.4516C81.8496 45.4149 83.0559 44.1445 85.9284 44.1445C88.7029 44.1445 90.1731 44.9814 90.6745 46.7192C91.5113 45.5167 93.0456 44.1445 95.854 44.1445C99.4277 44.1483 100.8 45.5205 100.8 48.4269Z"
        fill="black" />
    <path d="M103.944 38H110.16V42.5764H103.944V38ZM104.076 44.3482H110.024V62.3938H104.076V44.3482Z" fill="black" />
    <path
        d="M113.432 44.3481H119.381V46.6552C120.15 45.6185 121.454 44.3481 123.625 44.3481H125.495V49.5277H123.29C121.752 49.5277 120.451 49.7615 119.381 50.4626V62.3938H113.432V44.3481Z"
        fill="black" />
    <path
        d="M127.904 44.3481H133.853V46.6552C134.622 45.6185 135.926 44.3481 138.098 44.3481H139.967V49.5277H137.762C136.224 49.5277 134.924 49.7615 133.853 50.4626V62.3938H127.904V44.3481Z"
        fill="black" />
    <path
        d="M141.539 58.1189V48.6268C141.539 45.7203 142.907 44.3481 145.818 44.3481H153.169C156.075 44.3481 157.447 45.7166 157.447 48.6268V58.1189C157.447 61.0254 156.079 62.3975 153.169 62.3975H145.818C142.911 62.3938 141.539 61.0254 141.539 58.1189ZM150.963 57.7155C151.465 57.7155 151.631 57.5497 151.631 57.0483V49.6974C151.631 49.196 151.465 49.0301 150.963 49.0301H148.023C147.522 49.0301 147.356 49.196 147.356 49.6974V57.0483C147.356 57.5497 147.522 57.7155 148.023 57.7155H150.963Z"
        fill="black" />
    <path
        d="M160.558 44.3481H166.506V46.6552C167.275 45.6185 168.58 44.3481 170.751 44.3481H172.621V49.5277H170.415C168.877 49.5277 167.577 49.7615 166.506 50.4626V62.3938H160.558V44.3481Z"
        fill="black" />
    <path
        d="M189.614 61.1876C189.626 61.4364 189.724 61.9981 189.543 62.2054C189.32 62.458 188.744 62.3901 188.45 62.3826C187.322 62.3486 186.195 62.3675 185.068 62.3826C185.019 61.6173 184.959 60.8558 184.925 60.0906C184.925 60.034 184.917 59.9813 184.902 59.9323C184.865 59.7626 184.763 59.642 184.638 59.5591C184.631 59.5515 184.62 59.5478 184.612 59.5402C184.605 59.5364 184.601 59.5327 184.593 59.5289C184.401 59.4083 184.156 59.3743 183.934 59.5176C183.851 59.5628 183.779 59.6231 183.726 59.6985C182.192 61.1876 180.315 62.5484 178.113 62.6955C177.163 62.7558 176.01 62.6502 175.403 61.8133C174.849 61.0519 174.833 60.0001 174.8 59.0992C174.717 56.6865 174.596 54.2702 174.566 51.8538C174.543 49.7767 174.965 47.3753 177.291 46.7797C178.513 46.4668 179.787 46.7383 180.971 47.0926C181.992 47.4017 183.153 47.7787 183.824 48.6646C184.039 49.0189 184.567 49.0717 184.846 48.8154C185.061 48.6608 185.166 48.3969 185.015 48.1218C184.955 46.7873 184.895 45.4528 184.834 44.1145C184.804 43.4247 184.77 42.7348 184.74 42.045C184.725 41.717 184.71 41.389 184.699 41.0611C184.687 40.8462 184.559 40.3034 184.68 40.1262C184.759 40.0056 186.037 40.096 186.293 40.0923C187.013 40.081 187.733 40.0621 188.453 40.0659C188.623 40.0659 188.97 40.0244 189.106 40.1677C189.249 40.3184 189.196 40.7218 189.2 40.9141C189.219 41.6529 189.219 42.388 189.215 43.1269C189.204 45.9919 189.041 48.8606 189.147 51.7256C189.249 54.4888 189.449 57.2445 189.565 60.0077C189.581 60.3997 189.599 60.7955 189.614 61.1876ZM184.827 54.5529C184.906 53.4861 184.932 52.4192 184.91 51.3486C184.906 51.2657 184.891 51.1941 184.865 51.13C184.861 51.032 184.831 50.9302 184.759 50.8284C184.333 50.1876 183.677 49.9161 182.935 49.8219C182.215 49.7276 181.4 49.7088 180.714 49.9878C179.097 50.6512 179.203 52.7849 179.123 54.24C179.044 55.6876 178.682 57.8966 180.296 58.6656C181.076 59.0388 181.92 58.9446 182.742 58.7637C183.508 58.5902 184.231 58.3151 184.469 57.4895C184.601 57.0371 184.623 56.5357 184.68 56.0721C184.74 55.5669 184.789 55.0618 184.827 54.5529Z"
        fill="#E4E3FD" />
    <path
        d="M184.91 51.3487C184.933 52.4193 184.906 53.4861 184.827 54.5529C184.789 55.0619 184.74 55.567 184.68 56.0721C184.623 56.5358 184.601 57.0372 184.469 57.4896C184.231 58.3151 183.508 58.5903 182.742 58.7637C181.921 58.9447 181.076 59.0389 180.296 58.6657C178.682 57.8967 179.044 55.6876 179.123 54.2401C179.203 52.785 179.097 50.6513 180.714 49.9878C181.4 49.7089 182.215 49.7277 182.935 49.822C183.677 49.9162 184.333 50.1876 184.759 50.8285C184.831 50.9303 184.861 51.032 184.865 51.13C184.891 51.1941 184.906 51.2658 184.91 51.3487ZM183.44 55.6198C183.587 54.2325 183.643 52.8415 183.617 51.4505C183.338 51.0848 182.72 51.0773 182.305 51.0622C181.781 51.0471 181.095 51.017 180.793 51.5372C180.53 51.9933 180.533 52.6078 180.492 53.1167C180.435 53.8141 180.394 54.5152 180.371 55.2126C180.356 55.7781 180.266 56.4378 180.439 56.9882C180.597 57.5046 181.084 57.6516 181.585 57.6403C181.909 57.6328 182.222 57.5574 182.535 57.4858C182.712 57.4443 183.021 57.4217 183.157 57.2784C183.304 57.1239 183.296 56.7808 183.323 56.5811C183.368 56.2606 183.406 55.9402 183.44 55.6198Z"
        fill="black" />
    <path
        d="M184.638 59.5591C184.762 59.642 184.864 59.7626 184.902 59.9323C184.917 59.9813 184.925 60.0341 184.925 60.0906C184.958 60.8559 185.019 61.6173 185.068 62.3826C186.195 62.3675 187.322 62.3487 188.449 62.3826C188.743 62.3901 189.32 62.458 189.542 62.2054C189.723 61.9981 189.625 61.4364 189.614 61.1876C189.599 60.7955 189.58 60.3997 189.565 60.0077C189.448 57.2445 189.248 54.4888 189.147 51.7256C189.041 48.8606 189.203 45.9919 189.214 43.1269C189.218 42.388 189.218 41.653 189.199 40.9141C189.196 40.7218 189.248 40.3185 189.105 40.1677C188.969 40.0244 188.623 40.0659 188.453 40.0659C187.733 40.0621 187.013 40.081 186.293 40.0923C186.037 40.0961 184.759 40.0056 184.68 40.1262C184.559 40.3034 184.687 40.8462 184.698 41.0611C184.71 41.3891 184.725 41.717 184.74 42.045C184.77 42.7349 184.804 43.4247 184.834 44.1146C184.894 45.4528 184.955 46.7873 185.015 48.1218C185.166 48.397 185.06 48.6608 184.845 48.8154C184.566 49.0717 184.039 49.019 183.824 48.6646C183.153 47.7787 181.992 47.4018 180.97 47.0926C179.786 46.7383 178.512 46.4669 177.291 46.7798C174.965 47.3754 174.543 49.7767 174.565 51.8538C174.596 54.2702 174.716 56.6866 174.799 59.0992C174.833 60.0001 174.848 61.0519 175.402 61.8134C176.009 62.6502 177.163 62.7558 178.113 62.6955C180.314 62.5485 182.192 61.1876 183.726 59.6986C183.779 59.6232 183.85 59.5629 183.933 59.5176C184.156 59.3744 184.401 59.4083 184.593 59.5289C184.6 59.5327 184.604 59.5365 184.612 59.5402C184.619 59.5478 184.631 59.5515 184.638 59.5591ZM190.839 59.6156C190.869 60.3658 190.964 61.1424 190.915 61.8925C190.828 63.2572 189.795 63.6982 188.57 63.6756C187.201 63.653 185.833 63.6681 184.465 63.6794C184.103 63.6831 183.835 63.3816 183.82 63.0348C183.797 62.5032 183.756 61.9717 183.718 61.4439C181.781 63.0725 179.402 64.3089 176.808 63.9319C175.647 63.7623 174.599 63.1667 174.068 62.0886C173.555 61.0406 173.536 59.8456 173.499 58.7071C173.446 57.1917 173.397 55.6763 173.348 54.1646C173.299 52.7849 173.189 51.3863 173.37 50.0142C173.532 48.8192 173.955 47.6355 174.803 46.7534C175.655 45.86 176.869 45.4377 178.083 45.3623C179.417 45.2832 180.782 45.6413 182.033 46.0824C182.614 46.2822 183.168 46.5272 183.665 46.8438C183.605 45.5094 183.545 44.1711 183.485 42.8366C183.447 41.9696 183.337 41.0762 183.375 40.2092C183.413 39.4514 183.854 38.9199 184.623 38.837C185.43 38.7503 186.267 38.803 187.077 38.7917C187.771 38.7804 188.543 38.6749 189.222 38.8332C190.786 39.1989 190.504 41.0988 190.507 42.324C190.519 45.6526 190.311 48.9888 190.462 52.3175C190.534 53.9007 190.651 55.4803 190.73 57.0598C190.771 57.9117 190.802 58.7637 190.839 59.6156Z"
        fill="black" />
    <defs>
        <clipPath id="clip0_134_1028">
            <rect width="57" height="102" fill="white" />
        </clipPath>
    </defs>
</svg>