<svg id="Layer_1" data-name="Layer 1" xmlns="http://www.w3.org/2000/svg" viewBox="0 0 425.2 425.2"><defs><style>.cls-1{fill:#f06b24;}.cls-2{fill:#aae8ee;}.cls-3{fill:#d7f7fa;}</style></defs><path class="cls-1" d="M319.49,137.09V55.18a22.44,22.44,0,0,0-22.44-22.44h0A22.45,22.45,0,0,0,274.6,55.18V111.7a25.38,25.38,0,0,1-25.38,25.39m0,0H200.94a94.77,94.77,0,0,0-94.76,94.77v69a91.56,91.56,0,0,0,91.56,91.56H211.5a108,108,0,0,0,108-108V137.09M209.16,179.65h0a65.44,65.44,0,0,1,65.44,65.44v38.45a65.89,65.89,0,0,1-65.89,65.9h0a58.59,58.59,0,0,1-58.59-58.59V238.7A59,59,0,0,1,209.16,179.65Z"/><path class="cls-2" d="M170.07,351.32c9.49,4.69,21.41,7.06,35.59,7.06h.64l72.22-75.93v-42Zm76.16,7.06h17.42a14.87,14.87,0,0,0,14.87-14.87V323.89ZM206.35,171.16c-41.44,0-64.06,21.19-65,65.05a3.85,3.85,0,0,0,0,.76l68.41-65.81Zm22.92,0-88,85v30.5l120-115.46Z"/><path class="cls-3" d="M205.66,358.38h39.93l32.93-35.18V281.76Zm58-187.22h-3.19L141.25,285.93v8.85q0,42.11,28.35,56.31L278.52,239.8V186A14.84,14.84,0,0,0,263.65,171.16Zm-54.64,0L141.3,236.21a3.85,3.85,0,0,0,0,.76c-.05.75-.05,1.5-.05,2.31v16.15l87.32-84.27Z"/><path class="cls-1" d="M319,137.09V55.18a22.44,22.44,0,0,0-22.44-22.44h0a22.44,22.44,0,0,0-22.44,22.44V111.7a25.39,25.39,0,0,1-25.39,25.39m0,0H200.46a94.76,94.76,0,0,0-94.75,94.77v69a91.56,91.56,0,0,0,91.56,91.56H211a108,108,0,0,0,108-108V137.09M208.69,179.65h0a65.44,65.44,0,0,1,65.44,65.44v38.45a65.9,65.9,0,0,1-65.9,65.9h0a58.59,58.59,0,0,1-58.59-58.59V238.7A59,59,0,0,1,208.69,179.65Z"/></svg>