<?xml version="1.0" encoding="UTF-8"?><svg id="Layer_1" xmlns="http://www.w3.org/2000/svg" viewBox="0 0 1065.84 1065.84"><defs><style>.cls-1{fill:#e4e3fd;}.cls-2{fill:#1d1d1b;}</style></defs><path class="cls-2" d="m961.12,244.48c58.12,83.51,92.32,184.95,92.32,294.4,0,285.03-231.11,516.08-516.14,516.08S21.21,823.92,21.21,538.88c0-107.17,32.73-206.7,88.62-289.23-21.69-26.01-53.37-79.81-39.87-162.27,19.91-121.35,66.56-29.52,75.8-22.12,8.87,7.15,60.58,43.26,89.92,48.07,1.29.25,2.59.37,3.76.43,1.48.12,2.47.74,3.02,1.6,83.63-58.3,185.2-92.57,294.83-92.57s209.17,33.53,292.25,90.72c.55-.06,1.05-.06,1.6-.18,29.34-4.81,81.04-40.92,89.92-48.07,9.24-7.4,55.96-99.22,75.8,22.12,12.7,77.34-14.42,129.48-35.74,157.09Zm-30.94,294.4c0-216.63-176.26-392.82-392.89-392.82s-392.82,176.2-392.82,392.82,176.26,392.82,392.82,392.82,392.89-176.2,392.89-392.82Z"/><path class="cls-1" d="m537.29,146.06c216.63,0,392.89,176.2,392.89,392.82s-176.26,392.82-392.89,392.82-392.82-176.2-392.82-392.82,176.26-392.82,392.82-392.82Zm97.37,166.46c7.21-7.21,7.21-18.92,0-26.13s-18.92-7.21-26.13,0l-346.36,346.36c-7.21,7.21-7.21,18.92,0,26.13,3.64,3.57,8.32,5.42,13.07,5.42s9.49-1.85,13.07-5.42l346.36-346.36Zm-118.82-9.24c7.27-7.21,7.27-18.92,0-26.13-7.21-7.27-18.92-7.27-26.13,0l-163.07,163.01c-7.21,7.21-7.21,18.92,0,26.13,3.64,3.64,8.38,5.42,13.13,5.42s9.43-1.79,13.07-5.42l163.01-163.01Z"/><path class="cls-2" d="m634.67,286.39c7.21,7.21,7.21,18.92,0,26.13l-346.36,346.36c-3.57,3.57-8.32,5.42-13.07,5.42s-9.43-1.85-13.07-5.42c-7.21-7.21-7.21-18.92,0-26.13l346.36-346.36c7.21-7.21,18.92-7.21,26.13,0Z"/><path class="cls-2" d="m515.85,277.15c7.27,7.21,7.27,18.92,0,26.13l-163.01,163.01c-3.64,3.64-8.38,5.42-13.07,5.42s-9.49-1.79-13.13-5.42c-7.21-7.21-7.21-18.92,0-26.13l163.07-163.01c7.21-7.27,18.92-7.27,26.13,0Z"/></svg>