<svg width="689" height="817" viewBox="0 0 689 817" fill="none" xmlns="http://www.w3.org/2000/svg">
<path d="M312.297 283.862C315.87 300.56 311.531 315.459 301.834 319.313C294.688 322.138 286.267 319.313 278.611 312.12C278.356 311.606 277.845 311.349 277.335 311.092C277.335 311.092 277.335 311.092 277.08 310.835C272.231 305.954 267.893 299.275 264.83 291.569C260.747 281.55 259.471 271.274 261.002 262.283C262.534 254.063 266.362 248.154 272.231 245.842C277.08 243.787 283.205 244.558 289.074 248.154C290.35 250.21 291.371 252.008 292.392 253.549C288.819 255.861 286.777 262.54 286.777 271.274L289.584 272.816L299.282 278.467L288.309 279.752H287.543C287.798 280.779 287.798 281.807 288.053 282.834C290.86 298.505 298.516 310.065 304.641 308.78C310.255 307.753 313.063 296.193 311.276 282.321C312.042 283.348 312.297 283.605 312.297 283.862Z" fill="white"/>
<path d="M424.583 293.881C421.776 299.789 418.203 304.67 414.12 308.78C414.12 308.78 414.12 308.78 413.865 308.78C413.355 309.037 413.099 309.551 412.844 309.808C405.188 316.744 396.767 319.826 389.621 317C379.924 312.89 375.585 298.248 379.158 281.55C380.434 280.009 381.965 278.21 383.241 276.669C387.58 271.017 391.153 265.109 394.47 259.201L395.491 257.402C396.512 255.861 397.277 254.063 398.298 252.521C399.319 250.723 400.595 248.668 402.126 246.356C405.188 244.558 407.996 243.53 410.803 243.017C409.016 247.127 408.761 252.008 408.761 256.375L411.568 257.916L421.266 263.568L410.292 264.852H409.527C409.782 265.88 409.782 266.907 410.037 268.192C412.844 281.807 418.969 292.596 424.583 293.881Z" fill="white"/>
<path d="M442.958 287.972C441.682 286.945 439.64 287.201 438.619 288.486C435.812 292.082 432.494 295.422 428.922 298.505C429.942 296.449 431.218 294.137 431.984 291.825C436.578 280.779 437.854 269.219 436.067 259.201C434.026 248.668 428.922 241.218 421.266 238.136C417.693 236.594 413.61 236.338 409.271 237.108C413.099 233.255 418.203 229.658 424.583 228.374C431.729 227.09 439.13 229.658 442.447 234.796C443.468 236.081 445.254 236.594 446.785 235.567C448.061 234.539 448.572 232.741 447.551 231.457C442.702 224.264 433.005 220.667 423.563 222.722C413.865 224.521 406.719 231.2 402.381 236.338C400.595 238.393 399.064 240.705 397.532 242.76C395.746 245.329 394.47 247.641 393.194 249.953C392.173 251.751 391.152 253.292 390.387 254.834L389.366 256.632C386.048 262.283 382.731 268.192 378.648 273.329C373.544 280.009 368.44 284.633 362.57 287.972C363.081 283.605 364.357 279.495 366.398 275.641C367.164 274.1 366.653 272.302 365.122 271.531C363.591 270.761 361.805 271.274 361.039 272.816C358.487 277.697 356.956 282.834 356.446 288.229C356.446 289 356.19 291.312 357.722 293.11C358.742 294.137 359.763 294.651 361.294 294.651C362.57 294.651 363.846 294.394 365.122 293.367C367.419 292.082 369.716 290.541 372.013 288.743C370.481 304.927 376.351 318.542 387.324 323.166C389.876 324.193 392.428 324.707 394.98 324.707C402.381 324.707 410.292 320.854 417.183 314.175C427.135 308.78 436.067 301.587 442.958 292.596C444.489 291.055 444.233 289 442.958 287.972ZM344.196 75.7822C423.052 75.7822 487.362 177.767 487.362 302.872C487.362 427.976 423.052 529.961 344.196 529.961C265.085 529.961 201.03 427.976 201.03 302.872C201.03 177.767 265.34 75.7822 344.196 75.7822ZM429.432 397.92C430.198 397.407 430.198 396.379 429.687 395.865C429.177 395.095 428.156 395.095 427.646 395.608L320.463 477.556C319.697 478.07 319.697 479.097 320.208 479.611C320.463 479.868 320.973 480.125 321.483 480.125C321.739 480.125 322.249 480.125 322.504 479.868L429.432 397.92ZM392.173 460.601C392.939 460.087 392.939 459.06 392.428 458.546C391.918 457.775 390.897 457.775 390.387 458.289L363.081 478.583C362.315 479.097 362.315 480.125 362.825 480.639C363.081 481.152 363.591 481.409 364.101 481.409C364.357 481.409 364.612 481.152 364.867 481.152L392.173 460.601ZM384.517 110.719C385.283 110.205 385.283 109.178 384.772 108.664C384.262 107.893 383.241 107.893 382.731 108.407L275.548 190.098C274.782 190.611 274.782 191.639 275.293 192.153C275.548 192.41 276.058 192.666 276.569 192.666C276.824 192.666 277.334 192.667 277.334 192.41L384.517 110.719ZM372.523 194.208C373.289 193.694 373.289 192.667 372.778 192.153C372.268 191.382 371.247 191.382 370.737 191.896L343.43 211.933C342.665 212.447 342.665 213.474 343.175 213.988C343.43 214.502 343.941 214.502 344.451 214.502C344.706 214.502 344.962 214.502 345.217 214.245L372.523 194.208ZM370.992 379.168C371.757 378.654 371.757 377.626 371.247 377.112C370.737 376.342 369.716 376.342 369.205 376.856L311.276 421.297C310.51 421.811 310.51 422.839 311.02 423.352C311.276 423.609 311.786 423.866 312.296 423.866C312.552 423.866 312.807 423.866 313.062 423.609L370.992 379.168ZM364.101 358.616C364.867 358.103 364.867 357.075 364.357 356.561C363.846 355.791 362.825 355.791 362.315 356.304L335.009 376.599C334.243 377.112 334.243 378.14 334.754 378.654C335.009 379.168 335.519 379.424 336.03 379.424C336.285 379.424 336.795 379.168 336.795 379.168L364.101 358.616ZM353.128 112.004C353.894 111.49 353.894 110.462 353.383 109.948C352.873 109.178 351.852 109.178 351.342 109.692L293.412 154.39C292.646 154.904 292.646 155.931 293.157 156.445C293.412 156.702 293.922 156.959 294.433 156.959C294.688 156.959 295.198 156.959 295.453 156.702L353.128 112.004ZM333.733 294.908C335.264 293.11 335.009 290.798 335.009 290.027C334.499 284.633 332.967 279.238 330.671 274.357C329.905 272.816 328.119 272.302 326.587 273.073C325.056 273.843 324.546 275.641 325.311 277.183C327.353 281.036 328.629 285.403 329.139 289.513C323.525 286.174 318.166 281.293 313.062 274.871C308.979 269.476 305.406 263.568 302.344 258.173L301.068 256.118C300.047 254.577 299.281 252.778 298.261 251.237C296.985 249.182 295.709 246.613 293.922 244.044C293.922 244.044 293.922 244.044 293.922 243.787C292.646 241.732 290.86 239.42 289.073 237.365C284.735 232.227 277.59 225.805 267.892 223.75C258.45 221.952 248.752 225.548 243.903 232.484C242.883 233.769 243.393 235.824 244.669 236.594C245.945 237.622 247.987 237.108 248.752 235.824C252.325 230.686 259.726 228.117 266.616 229.402C272.996 230.686 278.1 234.539 281.928 238.136C277.845 237.365 273.762 237.879 269.934 239.163C262.278 242.246 257.174 249.696 255.132 260.228C253.346 270.247 254.877 281.807 259.215 292.853C260.236 295.165 261.257 297.477 262.278 299.532C258.705 296.449 255.387 293.11 252.58 289.513C251.559 288.229 249.518 287.972 248.242 289C246.966 290.027 246.711 292.082 247.731 293.367C254.877 302.101 263.809 309.551 273.506 314.945C280.397 321.625 288.308 325.221 295.964 325.221C298.516 325.221 301.323 324.707 303.62 323.68C314.593 319.056 320.208 305.697 318.932 289.257C321.228 291.055 323.27 292.596 325.822 293.881C327.098 294.651 328.374 294.908 329.65 294.908C331.691 296.449 332.967 295.936 333.733 294.908Z" fill="#E4E3FD"/>
<path d="M473.071 133.582C498.846 180.85 512.882 240.705 512.882 303.129C512.882 411.279 470.009 508.639 405.444 547.43C405.954 549.228 406.464 551.283 406.464 553.338C406.464 564.127 397.533 573.118 386.814 573.118C382.986 573.118 379.158 572.091 376.096 570.036C376.351 571.063 376.351 572.348 376.351 573.375C376.351 591.101 362.06 605.486 344.451 605.486C326.843 605.486 312.552 591.101 312.552 573.375C312.552 572.348 312.552 571.063 312.807 570.036C309.745 572.091 305.917 573.118 302.089 573.118C291.37 573.118 282.438 564.384 282.438 553.338C282.438 551.283 282.694 549.228 283.459 547.43C218.639 508.383 175.511 411.022 175.511 303.129C175.511 240.191 189.802 179.822 216.087 132.298C214.811 131.527 214.046 130.499 213.025 129.472C204.348 119.71 199.499 106.352 198.223 92.2231C197.713 82.2044 198.989 71.9289 202.562 62.6809C203.072 61.1396 204.858 56.7725 209.197 56.2587C213.79 55.7449 216.598 59.5982 219.15 63.1947C220.17 64.4791 221.191 65.7636 221.701 66.5342C226.55 71.1582 232.675 75.0115 240.586 78.608C244.414 80.4062 248.497 81.9475 252.325 83.232C262.023 73.4702 272.231 65.2498 282.949 58.8276C282.438 56.7725 281.928 54.9742 281.928 52.9191C281.928 42.1298 290.86 33.1387 301.578 33.1387C305.406 33.1387 309.234 34.1663 312.297 36.2214C312.297 35.1938 312.041 33.9094 312.041 32.8818C312.041 15.1565 326.332 0.770752 343.941 0.770752C361.55 0.770752 375.841 15.1565 375.841 32.8818C375.841 33.9094 375.841 35.1938 375.586 36.2214C378.648 34.1663 382.476 33.1387 386.304 33.1387C397.277 33.1387 405.954 42.1298 405.954 52.9191C405.954 54.9742 405.699 57.0293 404.933 58.8276C415.907 65.5067 426.625 73.984 436.578 84.2595C440.661 82.9751 444.489 81.4338 448.572 79.6355C456.483 76.0391 462.608 72.1858 467.457 67.5618C468.222 66.7911 469.243 65.5067 470.009 64.2222C472.561 60.6258 475.368 56.7725 479.961 57.2862C484.3 57.8 486.086 62.1671 486.596 63.7084C490.169 72.9564 491.445 83.232 490.68 93.2506C489.659 107.123 484.555 120.738 475.878 130.499C475.623 131.27 474.602 132.555 473.071 133.582ZM487.362 303.129C487.362 177.767 423.052 76.0391 344.196 76.0391C265.085 76.0391 201.03 178.024 201.03 303.129C201.03 428.233 265.34 530.218 344.196 530.218C423.308 530.218 487.362 428.233 487.362 303.129Z" fill="black"/>
<path d="M390.387 458.289C391.153 457.775 391.919 458.032 392.429 458.546C392.939 459.317 392.684 460.087 392.174 460.601L364.868 480.895C364.612 481.152 364.357 481.152 364.102 481.152C363.592 481.152 363.081 480.895 362.826 480.382C362.316 479.611 362.571 478.84 363.081 478.326L390.387 458.289Z" fill="black"/>
<path d="M414.12 308.78C417.948 304.927 421.521 299.789 424.583 293.881C418.969 292.339 412.844 281.807 410.292 267.935C410.037 266.907 409.782 265.88 409.782 264.595H410.548L421.521 263.311L411.824 257.659L409.016 256.118C409.016 251.751 409.272 246.87 411.058 242.76C408.251 243.274 405.188 244.301 402.381 246.099C400.85 248.154 399.574 250.466 398.553 252.265C397.532 254.063 396.512 255.604 395.746 257.146L394.725 258.944C391.408 264.595 387.835 270.761 383.497 276.412C382.221 278.21 380.689 279.752 379.413 281.293C375.841 297.991 380.179 312.633 389.877 316.744C397.022 319.569 405.444 316.487 413.1 309.551C413.1 309.551 413.61 309.037 414.12 308.78ZM447.806 231.2C448.827 232.484 448.572 234.539 447.041 235.31C445.765 236.338 443.723 236.081 442.702 234.539C439.13 229.402 431.729 226.833 424.839 228.117C418.459 229.402 413.355 233.255 409.527 236.851C413.61 236.081 417.693 236.594 421.521 237.879C429.177 240.962 434.536 248.411 436.322 258.944C438.109 268.962 436.578 280.522 432.239 291.569C431.219 293.881 430.198 296.193 429.177 298.248C432.75 295.165 436.067 291.826 438.874 288.229C439.895 286.945 441.937 286.688 443.213 287.715C444.489 288.743 444.744 290.798 443.723 292.082C436.578 301.073 427.646 308.266 417.948 313.661C411.058 320.34 403.147 324.193 395.746 324.193C392.939 324.193 390.387 323.68 388.09 322.652C377.117 318.028 371.502 304.67 372.778 288.229C370.482 290.027 368.185 291.569 365.888 292.853C364.612 293.624 363.081 294.138 362.06 294.138C360.784 294.138 359.508 293.624 358.487 292.596C356.956 290.798 357.211 288.486 357.211 287.715C357.722 282.321 359.253 277.183 361.805 272.302C362.57 270.761 364.357 270.247 365.888 271.018C367.419 271.788 367.93 273.586 367.164 275.128C365.122 278.981 363.846 283.348 363.336 287.458C368.95 284.119 374.309 279.238 379.413 272.816C383.497 267.421 387.069 261.77 390.132 256.118L391.153 254.32C392.173 252.522 393.194 250.98 393.96 249.439C395.236 247.384 396.512 244.815 398.298 242.246C399.829 240.191 401.36 237.879 403.147 235.824C407.485 230.686 414.886 224.264 424.328 222.209C433.26 220.411 442.958 224.007 447.806 231.2Z" fill="black"/>
<path d="M372.524 194.208L344.962 214.502C344.707 214.759 344.452 214.759 344.197 214.759C343.686 214.759 343.176 214.502 342.921 214.245C342.41 213.474 342.666 212.704 343.176 212.19L370.482 191.896C371.248 191.382 372.013 191.639 372.524 192.153C373.544 192.666 373.289 193.694 372.524 194.208Z" fill="black"/>
<path d="M362.315 356.048C363.081 355.534 363.846 355.791 364.357 356.305C364.867 357.075 364.612 357.846 364.102 358.36L336.795 378.654C336.54 378.911 336.285 378.911 336.03 378.911C335.519 378.911 335.009 378.654 334.754 378.14C334.243 377.369 334.499 376.599 335.009 376.085L362.315 356.048Z" fill="black"/>
<path d="M427.646 395.608C428.411 395.095 429.177 395.352 429.687 395.865C430.198 396.636 429.942 397.407 429.432 397.92L322.249 479.868C321.994 480.125 321.739 480.125 321.228 480.125C320.718 480.125 320.208 479.868 319.952 479.611C319.442 478.84 319.442 478.07 320.208 477.556L427.646 395.608Z" fill="black"/>
<path d="M369.206 376.599C369.971 376.085 370.737 376.342 371.247 376.856C371.758 377.626 371.758 378.397 370.992 378.911L313.062 423.609C312.807 423.866 312.552 423.866 312.297 423.866C311.786 423.866 311.276 423.609 311.021 423.352C310.51 422.582 310.51 421.811 311.276 421.297L369.206 376.599Z" fill="black"/>
<path d="M351.342 109.691C352.108 109.178 352.873 109.435 353.384 109.948C353.894 110.719 353.894 111.49 353.129 112.003L295.454 156.702C295.199 156.959 294.943 156.959 294.433 156.959C293.923 156.959 293.668 156.702 293.157 156.445C292.647 155.674 292.902 154.904 293.412 154.39L351.342 109.691Z" fill="black"/>
<path d="M275.548 190.098L382.731 108.15C383.242 107.636 384.263 107.893 384.773 108.407C385.283 109.178 385.028 109.948 384.518 110.462L277.335 192.41C277.08 192.667 276.824 192.666 276.569 192.666C276.059 192.666 275.548 192.41 275.293 192.153C274.783 191.639 274.783 190.611 275.548 190.098Z" fill="black"/>
<path d="M302.089 319.313C311.786 315.459 316.125 300.56 312.552 283.862C312.297 283.605 312.041 283.348 311.786 283.091C313.573 296.963 310.765 308.523 305.151 309.551C298.771 310.835 291.37 299.018 288.563 283.605C288.308 282.578 288.308 281.55 288.053 280.522H288.818L299.792 279.238L290.094 273.586L287.287 272.045C287.287 263.311 289.329 256.632 292.902 254.32C291.881 252.522 290.86 250.723 289.584 248.925C283.459 245.329 277.59 244.558 272.741 246.613C267.127 248.925 263.044 254.834 261.512 263.054C259.981 271.788 261.257 282.321 265.34 292.339C268.403 300.046 272.741 306.725 277.59 311.606C277.59 311.606 277.845 311.606 277.845 311.863C278.355 312.12 278.866 312.633 279.121 312.89C286.267 319.056 294.943 322.138 302.089 319.313ZM267.892 224.521C277.59 226.319 284.735 232.998 289.074 238.136C290.86 240.191 292.391 242.503 293.922 244.558C293.922 244.558 293.922 244.558 293.922 244.815C295.709 247.384 296.985 249.696 298.261 252.008C299.282 253.549 300.047 255.09 301.068 256.889L302.344 258.944C305.662 264.595 308.979 270.247 313.062 275.642C318.166 282.064 323.27 286.945 329.14 290.284C328.629 285.917 327.353 281.807 325.312 277.954C324.546 276.412 325.057 274.614 326.588 273.843C328.119 273.073 329.905 273.586 330.671 275.128C333.223 280.009 334.754 285.146 335.009 290.798C335.009 291.569 335.264 293.881 333.733 295.679C332.712 296.706 331.436 297.22 330.16 297.22C328.884 297.22 327.608 296.706 326.333 296.193C324.036 294.908 321.739 293.367 319.442 291.569C320.973 307.753 315.104 321.368 304.13 325.992C301.578 327.019 299.026 327.533 296.474 327.533C289.074 327.533 281.163 323.68 274.017 317.257C264.064 311.863 255.132 304.413 248.242 295.679C247.221 294.394 247.476 292.339 248.752 291.312C250.028 290.284 252.07 290.541 253.091 291.826C255.898 295.422 259.216 298.761 262.788 301.844C261.768 299.789 260.492 297.477 259.726 295.165C255.388 284.119 253.856 272.559 255.643 262.54C257.429 252.008 262.788 244.558 270.444 241.475C274.017 239.934 278.1 239.677 282.439 240.448C278.611 236.594 273.507 232.741 267.127 231.714C259.981 230.429 252.58 232.998 249.263 238.136C248.242 239.42 246.456 239.934 245.18 238.906C243.904 237.879 243.393 236.081 244.414 234.796C248.752 226.062 258.45 222.722 267.892 224.521Z" fill="black"/>
<path d="M153.282 723.948V806.95H117.94V732.28C117.94 729.301 116.955 728.316 113.573 728.316C106.428 728.316 101.255 730.107 94.3118 733.87V806.927H58.9701V732.28C58.9701 729.301 57.9846 728.316 54.6027 728.316C47.4582 728.316 42.2846 730.107 35.3417 733.87V806.927H0V699.715H35.3417V712.213C40.6945 706.053 47.8614 698.506 64.9275 698.506C81.4114 698.506 90.146 703.478 93.1248 713.803C98.0968 706.658 107.212 698.506 123.898 698.506C145.129 698.528 153.282 706.681 153.282 723.948Z" fill="black"/>
<path d="M171.96 662H208.892V689.189H171.96V662ZM172.744 699.716H208.086V806.928H172.744V699.716Z" fill="black"/>
<path d="M228.332 699.715H263.674V713.422C268.243 707.263 275.992 699.715 288.892 699.715H300.001V730.488H286.899C277.761 730.488 270.034 731.877 263.674 736.043V806.928H228.332V699.715V699.715Z" fill="black"/>
<path d="M314.313 699.715H349.655V713.422C354.224 707.263 361.973 699.715 374.874 699.715H385.982V730.488H372.88C363.743 730.488 356.016 731.877 349.655 736.043V806.928H314.313V699.715Z" fill="black"/>
<path d="M395.32 781.53V725.135C395.32 707.868 403.45 699.715 420.74 699.715H464.414C481.681 699.715 489.834 707.845 489.834 725.135V781.53C489.834 798.798 481.704 806.95 464.414 806.95H420.74C403.473 806.928 395.32 798.798 395.32 781.53ZM451.312 779.133C454.29 779.133 455.276 778.148 455.276 775.169V731.496C455.276 728.517 454.29 727.532 451.312 727.532H433.842C430.864 727.532 429.878 728.517 429.878 731.496V775.169C429.878 778.148 430.864 779.133 433.842 779.133H451.312Z" fill="black"/>
<path d="M508.312 699.715H543.654V713.422C548.223 707.263 555.972 699.715 568.873 699.715H579.981V730.488H566.879C557.742 730.488 550.015 731.877 543.654 736.043V806.928H508.312V699.715V699.715Z" fill="black"/>
<path d="M680.945 799.762C681.012 801.24 681.594 804.577 680.519 805.809C679.198 807.309 675.771 806.906 674.024 806.861C667.328 806.66 660.631 806.772 653.934 806.861C653.643 802.315 653.285 797.791 653.083 793.244C653.083 792.908 653.039 792.595 652.949 792.304C652.725 791.296 652.12 790.579 651.381 790.086C651.336 790.041 651.269 790.019 651.224 789.974C651.18 789.952 651.157 789.93 651.112 789.907C649.97 789.19 648.514 788.989 647.193 789.84C646.7 790.109 646.275 790.467 645.961 790.915C636.846 799.762 625.692 807.847 612.613 808.72C606.969 809.079 600.116 808.451 596.51 803.479C593.217 798.955 593.128 792.707 592.926 787.354C592.434 773.02 591.717 758.664 591.538 744.308C591.403 731.967 593.912 717.701 607.73 714.162C614.987 712.303 622.557 713.916 629.589 716.021C635.659 717.857 642.557 720.097 646.544 725.36C647.82 727.466 650.956 727.779 652.613 726.256C653.89 725.338 654.517 723.77 653.621 722.135C653.263 714.207 652.904 706.278 652.546 698.328C652.367 694.229 652.165 690.131 651.986 686.032C651.896 684.084 651.807 682.135 651.74 680.187C651.672 678.91 650.911 675.685 651.628 674.632C652.098 673.915 659.69 674.453 661.213 674.431C665.491 674.363 669.769 674.251 674.046 674.274C675.054 674.274 677.115 674.027 677.921 674.879C678.772 675.774 678.459 678.171 678.481 679.313C678.593 683.703 678.593 688.07 678.571 692.46C678.503 709.481 677.54 726.525 678.167 743.546C678.772 759.963 679.959 776.335 680.654 792.751C680.743 795.081 680.855 797.432 680.945 799.762ZM652.501 760.344C652.971 754.005 653.128 747.667 652.994 741.307C652.971 740.814 652.882 740.388 652.725 740.008C652.703 739.425 652.523 738.821 652.098 738.216C649.567 734.409 645.67 732.796 641.258 732.236C636.98 731.676 632.143 731.564 628.066 733.221C618.458 737.163 619.085 749.84 618.615 758.485C618.145 767.085 615.995 780.209 625.58 784.778C630.217 786.996 635.233 786.436 640.116 785.361C644.662 784.33 648.962 782.695 650.373 777.791C651.157 775.103 651.292 772.124 651.628 769.369C651.986 766.368 652.277 763.367 652.501 760.344Z" fill="#E4E3FD"/>
<path d="M652.994 741.307C653.129 747.667 652.972 754.006 652.501 760.344C652.278 763.367 651.986 766.368 651.628 769.37C651.292 772.124 651.158 775.103 650.374 777.791C648.963 782.696 644.663 784.33 640.116 785.361C635.234 786.436 630.217 786.996 625.581 784.778C615.995 780.21 618.145 767.085 618.616 758.485C619.086 749.84 618.459 737.163 628.067 733.222C632.143 731.564 636.981 731.676 641.258 732.236C645.671 732.796 649.568 734.409 652.098 738.216C652.524 738.821 652.703 739.425 652.725 740.008C652.882 740.389 652.972 740.814 652.994 741.307ZM644.26 766.682C645.133 758.44 645.469 750.176 645.312 741.911C643.655 739.739 639.982 739.694 637.518 739.605C634.405 739.515 630.329 739.336 628.537 742.427C626.969 745.137 626.992 748.787 626.745 751.811C626.41 755.954 626.163 760.12 626.029 764.263C625.939 767.623 625.402 771.542 626.432 774.812C627.373 777.88 630.262 778.754 633.24 778.687C635.167 778.642 637.026 778.194 638.884 777.768C639.937 777.522 641.774 777.388 642.58 776.536C643.453 775.618 643.409 773.58 643.565 772.393C643.834 770.489 644.058 768.586 644.26 766.682Z" fill="black"/>
<path d="M651.379 790.086C652.118 790.579 652.723 791.296 652.947 792.304C653.036 792.595 653.081 792.908 653.081 793.244C653.283 797.791 653.641 802.315 653.932 806.861C660.629 806.772 667.325 806.66 674.022 806.861C675.769 806.906 679.195 807.309 680.517 805.809C681.592 804.577 681.009 801.24 680.942 799.762C680.853 797.432 680.741 795.081 680.651 792.752C679.957 776.335 678.77 759.963 678.165 743.546C677.538 726.525 678.501 709.481 678.568 692.46C678.591 688.07 678.591 683.703 678.479 679.313C678.456 678.171 678.77 675.774 677.919 674.879C677.112 674.028 675.052 674.274 674.044 674.274C669.766 674.251 665.489 674.363 661.211 674.431C659.688 674.453 652.096 673.916 651.625 674.632C650.909 675.685 651.67 678.91 651.737 680.187C651.804 682.135 651.894 684.084 651.983 686.032C652.163 690.131 652.364 694.229 652.543 698.328C652.902 706.279 653.26 714.207 653.618 722.135C654.514 723.77 653.887 725.338 652.611 726.256C650.953 727.779 647.818 727.466 646.541 725.36C642.555 720.097 635.656 717.858 629.587 716.021C622.554 713.916 614.984 712.303 607.728 714.162C593.909 717.701 591.401 731.967 591.535 744.308C591.714 758.664 592.431 773.02 592.924 787.354C593.125 792.707 593.215 798.955 596.507 803.479C600.113 808.451 606.966 809.079 612.61 808.72C625.69 807.847 636.844 799.762 645.959 790.915C646.272 790.467 646.698 790.109 647.191 789.84C648.512 788.989 649.968 789.19 651.11 789.907C651.155 789.93 651.177 789.952 651.222 789.974C651.267 790.019 651.334 790.042 651.379 790.086ZM688.221 790.422C688.4 794.879 688.96 799.493 688.669 803.95C688.154 812.057 682.017 814.678 674.738 814.543C666.608 814.409 658.479 814.499 650.349 814.566C648.199 814.588 646.608 812.796 646.519 810.736C646.384 807.578 646.138 804.42 645.914 801.285C634.402 810.96 620.27 818.306 604.861 816.066C597.963 815.058 591.737 811.52 588.579 805.114C585.533 798.888 585.421 791.788 585.197 785.025C584.884 776.021 584.592 767.018 584.301 758.037C584.01 749.84 583.361 741.531 584.436 733.378C585.399 726.279 587.907 719.246 592.946 714.005C598.008 708.697 605.22 706.189 612.431 705.741C620.36 705.271 628.467 707.398 635.903 710.019C639.352 711.206 642.644 712.662 645.601 714.543C645.242 706.614 644.884 698.664 644.525 690.735C644.302 685.584 643.652 680.276 643.876 675.125C644.1 670.623 646.72 667.465 651.289 666.973C656.082 666.457 661.054 666.771 665.869 666.704C669.99 666.637 674.582 666.01 678.613 666.95C687.908 669.123 686.228 680.411 686.25 687.689C686.317 707.466 685.086 727.286 685.981 747.063C686.407 756.469 687.101 765.853 687.572 775.237C687.818 780.299 687.997 785.361 688.221 790.422Z" fill="black"/>
</svg>
